<?xml version="1.0" encoding="UTF-8" standalone="no"?>
<!DOCTYPE svg  PUBLIC '-//W3C//DTD SVG 1.1//EN'  'http://www.w3.org/Graphics/SVG/1.1/DTD/svg11.dtd'>
<svg xmlns="http://www.w3.org/2000/svg">
<defs>
<font id="ChiftText-Regular" horiz-adv-x="536">
<font-face underline-position="-50" font-weight="400" descent="-200" panose-1="2 3 5 3 5 4 3 3 4 3" units-per-em="1000" unicode-range="U+0020-FB06" bbox="-40 -254 957 890" x-height="500" underline-thickness="50" font-family="ChiftText" ascent="800" cap-height="700"/>
<missing-glyph horiz-adv-x="1000"/>
<glyph glyph-name="germandbls" horiz-adv-x="612" unicode="ss" d="M396 538q0 171 -111 171q-64 0 -90 -31t-26 -119v-495q19 -19 51 -30v-34h-196v34q33 0 70 30v386h-67v39q48 10 67 32v58q0 92 52 131.5t126 39.5q38 0 71 -7.5t66 -26.5t52.5 -58.5t19.5 -97.5q-108 -105 -105 -148q8 -9 42.5 -37.5t64.5 -56t55.5 -69.5t25.5 -82 q0 -60 -54 -116.5t-124 -56.5q-68 0 -128 28l14 121h35l31 -110q73 0 106 31.5t33 68.5q0 32 -17.5 63t-42.5 54t-50 43.5t-42.5 39t-17.5 33.5q0 22 5.5 43t18 41.5t20 31.5t25 31.5t20.5 24.5z"/>
<glyph glyph-name="emdash" horiz-adv-x="646" unicode=" - " d="M65 266v60h496v-60h-496z"/>
<glyph glyph-name="ellipsis" horiz-adv-x="555" unicode="..." d="M400 52q0 24 14.5 39.5t38.5 15.5q23 0 37.5 -15.5t14.5 -39.5q0 -25 -14.5 -41.5t-37.5 -16.5q-24 0 -38.5 16.5t-14.5 41.5zM220 52q0 24 14.5 39.5t38.5 15.5q23 0 37.5 -15.5t14.5 -39.5q0 -25 -14.5 -41.5t-37.5 -16.5q-24 0 -38.5 16.5t-14.5 41.5zM50 52 q0 24 14.5 39.5t38.5 15.5q23 0 37.5 -15.5t14.5 -39.5q0 -25 -14.5 -41.5t-37.5 -16.5q-24 0 -38.5 16.5t-14.5 41.5z"/>
<glyph glyph-name="fi" horiz-adv-x="539" unicode="fi" d="M425 721l7 -10q-4 -58 -12 -91h-52q-7 63 -17 72q-13 17 -72 17q-57 0 -83.5 -31.5t-26.5 -118.5v-59h259l8 -6v-430q35 -30 71 -30v-34h-216v34q33 0 70 30v364l-71 22h-121v-386q15 -12 40.5 -21t40.5 -9v-34h-226v34q33 0 70 30v386h-67v39q48 10 67 32v58 q0 92 53 131.5t132 39.5q108 0 146 -29z"/>
<glyph glyph-name="fl" horiz-adv-x="563" unicode="fl" d="M428 721l7 -10v-609q0 -39 26 -51t86 -12v-32l-107 -19q-80 0 -80 91v512q0 12 1 31t1 26q0 32 -16.5 46.5t-66.5 14.5q-57 0 -83.5 -31.5t-26.5 -118.5v-59h133l-10 -50h-123v-386q15 -12 40.5 -21t40.5 -9v-34h-226v34q33 0 70 30v386h-67v39q48 10 67 32v58 q0 92 53 131.5t132 39.5q111 0 149 -29z"/>
<glyph glyph-name=".notdef" horiz-adv-x="1000"/>
<glyph glyph-name=".null" horiz-adv-x="0"/>
<glyph glyph-name="nonmarkingreturn" horiz-adv-x="333"/>
<glyph glyph-name="space" horiz-adv-x="240" unicode=" "/>
<glyph glyph-name="exclam" horiz-adv-x="284" unicode="!" d="M126 49q0 23 14 38.5t37 15.5q22 0 36 -15.5t14 -38.5q0 -24 -14 -39.5t-36 -15.5q-23 0 -37 15.5t-14 39.5zM125 690q17 10 51 10t56 -10l-35 -543h-41z"/>
<glyph glyph-name="quotedbl" horiz-adv-x="195" unicode='&quot;' d="M4 680h76l-22 -188h-37zM119 680h76l-22 -188h-37z"/>
<glyph glyph-name="numbersign" horiz-adv-x="532" unicode="#" d="M198 438l-31 -175h139l32 175h-140zM56 438l13 63h97l30 163h41l-28 -163h141l30 163h41l-28 -163h101l-13 -63h-99l-31 -175h98l-13 -63h-96l-34 -200h-48l36 200h-138l-34 -200h-48l36 200h-99l13 63h98l32 175h-98z"/>
<glyph glyph-name="dollar" horiz-adv-x="498" unicode="$" d="M46 201h35l25 -98q55 -65 131 -65q50 0 90 29.5t40 70.5q0 40 -25.5 70.5t-116.5 88.5q-81 51 -126.5 98.5t-45.5 105.5q0 69 49 112.5t133 50.5v78l50 10v-86q88 -7 145 -49l9 -12q-1 -25 -5 -52t-8 -42l-3 -15h-32q-10 76 -28 92q-31 28 -93 28q-57 0 -94 -27.5 t-37 -70.5q0 -36 29.5 -67.5t110.5 -81.5q107 -66 140.5 -106.5t33.5 -92.5q0 -57 -49 -110.5t-126 -67.5v-106l-50 -10v112q-55 0 -100.5 16.5t-63.5 33.5l-18 16v147z"/>
<glyph glyph-name="percent" horiz-adv-x="633" unicode="%" d="M22 21l454 684l44 -23l-455 -689zM154 475q84 0 84 116q0 57 -24 90t-68 33q-84 0 -84 -113q0 -55 24 -90.5t68 -35.5zM450 55q84 0 84 116q0 57 -24 90t-68 33q-84 0 -84 -113q0 -55 24 -90.5t68 -35.5zM451 20q-77 0 -120 40.5t-43 112.5q0 73 46 115t109 42 q76 0 118.5 -40.5t42.5 -109.5q0 -77 -43 -118.5t-110 -41.5zM155 440q-77 0 -120 40.5t-43 112.5q0 73 46 115t109 42q76 0 118.5 -40.5t42.5 -109.5q0 -77 -43 -118.5t-110 -41.5z"/>
<glyph glyph-name="ampersand" horiz-adv-x="618" unicode="&amp;" d="M230 274l-50 61q-33 -49 -41 -111q-3 -20 -3 -40q0 -61 27.5 -97t83.5 -36q51 0 105 76q-9 10 -122 147zM104 309l55 53q-68 92 -68 171q0 69 38 120.5t110 51.5q34 0 56 -7q47 -13 70 -47.5t23 -80.5q0 -73 -62 -130l-12 -5q29 -6 74 -6q87 0 145 59l22 -19 q-15 -48 -49.5 -76t-85.5 -28q-76 0 -157 48l-16 -7l-19 28q88 53 88 135q0 35 -20 60.5t-57 25.5q-40 0 -60 -34.5t-20 -74.5q0 -15 3.5 -30.5t7 -27.5t14 -29.5t16.5 -27t23.5 -31t25 -30.5t31.5 -36t33 -38q212 -246 300 -274v-28h-39q-58 0 -95 18t-95 79q-3 -4 -10 -14 t-10 -13t-9.5 -11.5t-9.5 -12t-9 -10t-10 -10t-10.5 -8t-12 -7.5t-12.5 -6t-14 -5q-21 -6 -50 -6q-74 0 -125.5 46.5t-51.5 125.5q0 80 54 149z"/>
<glyph glyph-name="quotesingle" horiz-adv-x="85" unicode="&apos;" d="M4 680h76l-22 -188h-37z"/>
<glyph glyph-name="parenleft" horiz-adv-x="375" unicode="(" d="M347 732l24 -32q-190 -131 -190 -434q0 -141 52.5 -256.5t140.5 -189.5l-27 -27q-105 61 -178.5 187t-73.5 286q0 156 73.5 283.5t178.5 182.5z"/>
<glyph glyph-name="parenright" horiz-adv-x="378" unicode=")" d="M68 700l24 32q105 -55 178.5 -182.5t73.5 -283.5q0 -160 -73.5 -286t-178.5 -187l-27 27q88 74 140.5 189.5t52.5 256.5q0 303 -190 434z"/>
<glyph glyph-name="asterisk" horiz-adv-x="337" unicode="*" d="M148 571l-24 132q9 11 43 11q35 0 46 -11l-25 -132l103 86q14 -2 29.5 -27.5t15.5 -43.5q0 -5 -1 -7l-126 -43l126 -45q1 -2 1 -8q0 -20 -15.5 -43.5t-30.5 -26.5l-102 89l25 -133q-9 -12 -44 -12q-37 0 -45 12l24 133l-101 -89q-14 3 -30 28t-16 43q0 5 1 7l125 45 l-125 43q0 1 -0.5 3.5t-0.5 3.5q0 20 15 44.5t29 26.5z"/>
<glyph glyph-name="plus" horiz-adv-x="451" unicode="+" d="M25 281v60h163v165h66v-165h167v-60h-167v-170h-66v170h-163z"/>
<glyph glyph-name="comma" horiz-adv-x="162" unicode="," d="M33 67q0 23 16.5 36.5t40.5 13.5q66 0 66 -83q0 -47 -30 -92.5t-79 -74.5l-14 21q44 47 44 89q0 12 -7 24q-4 6 -14.5 17t-16.5 22.5t-6 26.5z"/>
<glyph glyph-name="hyphen" horiz-adv-x="306" unicode="-" d="M15 266v60h276v-60h-276z"/>
<glyph glyph-name="period" horiz-adv-x="275" unicode="." d="M195 57q0 -27 -16 -45t-41 -18q-26 0 -42 18t-16 45q0 26 16 43.5t42 17.5q25 0 41 -17.5t16 -43.5z"/>
<glyph glyph-name="slash" horiz-adv-x="355" unicode="/" d="M16 -249l247 1012h68l-244 -1013z"/>
<glyph glyph-name="zero" horiz-adv-x="535" unicode="0" d="M273 44q130 0 130 278q0 154 -30.5 223.5t-105.5 69.5q-135 0 -135 -282q0 -68 6 -117.5t21 -90t43.5 -61t70.5 -20.5zM269 -6q-219 0 -219 330q0 152 56.5 246.5t162.5 94.5q216 0 216 -333q0 -158 -52 -248t-164 -90z"/>
<glyph glyph-name="one" horiz-adv-x="372" unicode="1" d="M25 528l-10 30q109 37 192 102h31v-596q35 -26 99 -30v-34h-272v34q61 3 98 30v494q-62 -21 -138 -30z"/>
<glyph glyph-name="two" horiz-adv-x="454" unicode="2" d="M62 460l-12 141q36 24 50.5 33t49.5 20t74 11q74 0 124 -43t50 -125q0 -39 -11 -77t-25 -66.5t-45 -68t-53.5 -64.5t-68 -74t-73.5 -80h208q9 14 20.5 43t18.5 52l7 22l38 -10l-25 -174h-352l-7 38q38 48 89.5 110t75 91t52.5 68.5t40.5 63.5t20 53.5t8.5 60.5 q0 66 -33.5 96.5t-84.5 30.5q-43 0 -82 -26l-20 -126h-34z"/>
<glyph glyph-name="three" horiz-adv-x="477" unicode="3" d="M48 20v154h32l33 -119q32 -20 79 -20q69 0 107 42t38 116q0 61 -36 94.5t-98 33.5l-56 -5v48q69 20 113.5 58.5t44.5 95.5q0 94 -105 94q-47 0 -85 -26l-20 -105h-31l-10 117q44 36 83 51.5t89 15.5q75 0 117.5 -36.5t42.5 -104.5q0 -63 -37 -98.5t-96 -60.5 q70 -7 118 -48.5t48 -116.5q0 -107 -68 -156.5t-165 -49.5q-53 0 -123 17z"/>
<glyph glyph-name="four" horiz-adv-x="516" unicode="4" d="M299 210v267l3 53l-220 -320h217zM333 665h44v-451h96v-50h-96v-164h-78v164h-283l-1 56z"/>
<glyph glyph-name="five" horiz-adv-x="446" unicode="5" d="M387 591h-257v-189q45 9 71 9q16 0 25 -1q88 -7 134 -60t46 -135q0 -102 -63.5 -161.5t-161.5 -59.5q-61 0 -130 18l-11 8v154h32q19 -86 27 -117q39 -21 74 -21h11q58 2 98.5 45t40.5 122q0 72 -38 115t-138 43q-35 0 -80 -6v305h320v-69z"/>
<glyph glyph-name="six" horiz-adv-x="487" unicode="6" d="M389 672l18 -41q-135 -44 -205 -142.5t-70 -227.5q0 -217 123 -217q54 0 82 43t28 122q0 74 -49 108q-22 15 -50 15q-23 0 -47.5 -7t-37.5 -13l-13 -7l-11 29l63 39q32 12 69 12q71 0 114.5 -48.5t43.5 -130.5q0 -105 -59 -158.5t-139 -53.5q-199 0 -199 238 q0 169 90 286t249 154z"/>
<glyph glyph-name="seven" horiz-adv-x="376" unicode="7" d="M10 503l11 157h330v-32l-34 -81q-113 -280 -143 -547h-71q18 126 44.5 226.5t50.5 163.5t69 169q9 21 14 32h-188q-13 -10 -25 -32t-17 -39l-5 -17h-36z"/>
<glyph glyph-name="eight" horiz-adv-x="506" unicode="8" d="M155 509q0 -39 30 -66.5t97 -62.5q72 69 72 145q0 41 -25.5 65.5t-72.5 24.5q-42 0 -71.5 -30.5t-29.5 -75.5zM379 166q0 42 -37 79t-125 84q-58 -46 -78 -85.5t-20 -81.5q0 -44 35.5 -81t97.5 -37q57 0 92 33t35 89zM50 158q0 62 31.5 103t102.5 88q-103 69 -103 161 q0 64 49.5 109.5t125.5 45.5q77 0 122.5 -41t45.5 -104q0 -51 -28.5 -87t-82.5 -73q74 -42 108.5 -83t34.5 -100q0 -71 -52.5 -127t-151.5 -56q-90 0 -146 44t-56 120z"/>
<glyph glyph-name="nine" horiz-adv-x="487" unicode="9" d="M106 -7l-12 46q136 58 198.5 140t62.5 227q0 107 -33 158t-90 51q-53 0 -81.5 -40t-28.5 -106q0 -67 27.5 -101t71.5 -34q23 0 47.5 7t37.5 13l13 7l11 -29l-63 -39q-32 -12 -69 -12q-60 0 -109 49t-49 133q0 102 56.5 152t128.5 50q41 0 76 -11.5t67 -38.5t50.5 -80.5 t18.5 -128.5q0 -92 -24 -163t-70 -119t-103.5 -79t-133.5 -52z"/>
<glyph glyph-name="colon" horiz-adv-x="250" unicode=":" d="M235 451q0 -27 -16 -45t-41 -18q-26 0 -42 18t-16 45q0 26 16 43.5t42 17.5q25 0 41 -17.5t16 -43.5zM235 57q0 -27 -16 -45t-41 -18q-26 0 -42 18t-16 45q0 26 16 43.5t42 17.5q25 0 41 -17.5t16 -43.5z"/>
<glyph glyph-name="semicolon" horiz-adv-x="261" unicode=";" d="M168 512q17 0 30 -8q27 -17 27 -53q0 -27 -16 -45t-41 -18q-26 0 -42 18t-16 45q0 18 7 31q15 30 51 30zM246 34q0 -47 -30 -92.5t-79 -74.5l-14 21q44 47 44 89q0 18 -22 42.5t-22 47.5t16.5 36.5t40.5 13.5q66 0 66 -83z"/>
<glyph glyph-name="less" horiz-adv-x="341" unicode="&lt;" d="M275 465l42 -52l-226 -148l226 -142l-42 -58l-265 188v23z"/>
<glyph glyph-name="equal" horiz-adv-x="445" unicode="=" d="M25 288v57h396v-57h-396zM25 156v57h396v-57h-396z"/>
<glyph glyph-name="greater" horiz-adv-x="340" unicode="&gt;" d="M23 413l42 52l265 -189v-23l-265 -188l-42 58l226 142z"/>
<glyph glyph-name="question" horiz-adv-x="421" unicode="?" d="M176 49q0 23 14 38.5t37 15.5q22 0 36 -15.5t14 -38.5q0 -24 -14 -39.5t-36 -15.5q-23 0 -37 15.5t-14 39.5zM80 641l5 14q6 5 17.5 12.5t49.5 20t78 12.5q75 0 124 -40t49 -121q0 -13 -2 -33q-6 -38 -26.5 -74t-45.5 -62.5t-49.5 -50t-41 -44.5t-16.5 -38q0 -12 2 -24 t4 -18l1 -6l-32 -26q-25 51 -25 123q0 26 15.5 53.5t31.5 44.5t48 46t42 39q44 46 44 84q0 43 -33 65t-74 22q-71 0 -93 -23q-18 -19 -23 -93h-27q-14 44 -23 117z"/>
<glyph glyph-name="at" horiz-adv-x="863" unicode="@" d="M480 193l51 241q-43 18 -66 18q-24 0 -40 -16q-58 -57 -85.5 -139.5t-27.5 -145.5q0 -53 40 -53q50 16 128 95zM491 498q67 0 117 -14l-56 -273q-14 -70 -14 -89q0 -15 4 -20q88 1 149.5 69.5t61.5 162.5q0 115 -83 194t-218 79q-48 0 -95.5 -14t-91 -42.5t-77 -68.5 t-53.5 -96t-20 -120q0 -84 30.5 -153t79 -110.5t104.5 -63.5t112 -22q86 0 158 29l18 -50q-70 -34 -175 -34q-68 0 -135.5 25.5t-126 73.5t-94.5 128.5t-36 180.5q0 168 120.5 280.5t288.5 112.5q155 0 254.5 -95t99.5 -215q0 -133 -81.5 -219.5t-216.5 -86.5q-41 0 -41 52 q0 16 3 38l-92 -77q-36 -19 -72 -19t-57 29.5t-21 86.5q0 80 33 158t93.5 130.5t129.5 52.5z"/>
<glyph glyph-name="A" horiz-adv-x="589" unicode="A" d="M285 580l-11 -53l-81 -241h173zM361 0v36q48 6 73 32l-52 168h-204l-53 -168q30 -27 71 -32v-36h-201v36q37 0 75 32l217 643h38l194 -643q38 -32 75 -32v-36h-233z"/>
<glyph glyph-name="B" horiz-adv-x="580" unicode="B" d="M199 376l61 8q148 19 148 133q0 65 -38 103.5t-102 38.5q-21 0 -69 -11v-272zM288 46q69 0 110.5 44.5t41.5 102.5q0 67 -36.5 106.5t-113.5 39.5q-60 0 -91 -7v-267q39 -19 89 -19zM40 0v36q37 0 75 32v564q-38 32 -75 32v36h80q17 0 69 4.5t80 4.5q113 0 169 -47 t56 -129q0 -32 -17.5 -66t-45.5 -55q-25 -18 -70 -34q38 -4 69 -19q43 -20 71.5 -61t28.5 -89q0 -92 -59 -150.5t-172 -58.5h-259z"/>
<glyph glyph-name="C" horiz-adv-x="579" unicode="C" d="M516 681l10 -12v-11q0 -28 -7 -73.5t-15 -65.5h-31q-12 88 -25 107q-8 13 -37.5 21.5t-63.5 8.5q-96 0 -151.5 -76.5t-55.5 -218.5q0 -140 54.5 -224.5t157.5 -84.5q78 0 175 64l17 -32l-71 -57q-47 -39 -161 -39q-122 0 -192 93.5t-70 260.5q0 165 86.5 264.5 t218.5 99.5q110 0 161 -25z"/>
<glyph glyph-name="D" horiz-adv-x="653" unicode="D" d="M288 50q105 0 165 78.5t60 227.5q0 147 -63 223t-163 76q-45 0 -88 -8v-582q31 -15 89 -15zM40 0v36q37 0 75 32v565q-37 31 -75 31v36h116l148 5q134 0 216.5 -84t82.5 -259q0 -167 -79.5 -264.5t-224.5 -97.5h-259z"/>
<glyph glyph-name="E" horiz-adv-x="551" unicode="E" d="M40 664v36h439v-169h-40q0 28 -8 64t-23 55h-209v-267h150q18 20 27 79h40v-208h-40q-8 60 -27 79h-150v-268q31 -15 99 -15h108q36 39 60 119h40l-29 -169h-437v36q37 0 75 32v565q-37 31 -75 31z"/>
<glyph glyph-name="F" horiz-adv-x="522" unicode="F" d="M40 664v36h447v-169h-40q0 28 -8 64t-23 55h-217v-267h161q18 20 27 79h40v-208h-40q-8 60 -27 79h-161v-265q38 -32 75 -32v-36h-234v36q37 0 75 32v565q-37 31 -75 31z"/>
<glyph glyph-name="G" horiz-adv-x="627" unicode="G" d="M387 289v40h210v-40q-30 -4 -61 -27v-210l-51 -22q-100 -42 -173 -42q-122 0 -192 93.5t-70 260.5q0 165 86.5 264.5t218.5 99.5q110 0 161 -25l10 -12v-10q0 -27 -7 -70t-15 -64h-32q-11 84 -23 101q-8 13 -37.5 21.5t-64.5 8.5q-96 0 -151.5 -76.5t-55.5 -218.5 q0 -140 54.5 -224.5t157.5 -84.5q40 0 100 15v195q-23 21 -65 27z"/>
<glyph glyph-name="H" horiz-adv-x="697" unicode="H" d="M40 664v36h234v-36q-37 0 -75 -32v-249h299v249q-38 32 -75 32v36h234v-36q-38 0 -75 -31v-565q38 -32 75 -32v-36h-234v36q37 0 75 32v265h-299v-265q38 -32 75 -32v-36h-234v36q37 0 75 32v565q-37 31 -75 31z"/>
<glyph glyph-name="I" horiz-adv-x="354" unicode="I" d="M60 664v36h234v-36q-37 0 -75 -32v-564q38 -32 75 -32v-36h-234v36q37 0 75 32v564q-38 32 -75 32z"/>
<glyph glyph-name="J" horiz-adv-x="354" unicode="J" d="M65 664v36h234v-36q-37 0 -75 -32v-503q0 -87 -24.5 -152.5t-57.5 -100t-82 -66.5l-30 33q53 47 81.5 98t28.5 130v561q-38 32 -75 32z"/>
<glyph glyph-name="K" horiz-adv-x="620" unicode="K" d="M40 664v36h234v-36q-37 0 -75 -32v-564q38 -32 75 -32v-36h-234v36q37 0 75 32v565q-37 31 -75 31zM223 343v17l220 273q-32 28 -71 31v36h207v-36l-71 -31l-199 -251l177 -242q36 -50 66 -77t68 -39v-30h-69q-39 0 -61 12.5t-40 36.5q-124 161 -210 289z"/>
<glyph glyph-name="L" horiz-adv-x="497" unicode="L" d="M40 0v36q37 0 75 32v565q-37 31 -75 31v36h234v-36q-37 0 -75 -32v-582h188q36 39 60 119h40l-29 -169h-418z"/>
<glyph glyph-name="M" horiz-adv-x="829" unicode="M" d="M229 700v-18l187 -525l199 525v18h165v-36q-47 0 -85 -32l24 -565q39 -31 75 -31v-36h-230v36q37 0 75 32l-24 397l11 93l-207 -537l-9 -29h-23l-9 29l-210 574l12 -89l-18 -438q38 -32 75 -32v-36h-202v36q37 0 75 32l21 565q-38 32 -84 32v35h182z"/>
<glyph glyph-name="N" horiz-adv-x="677" unicode="N" d="M40 664v36h129l339 -499v432q-37 31 -75 31v36h204v-36q-38 0 -75 -31v-633h-29l-25 46l-339 503v-481q38 -32 75 -32v-36h-204v36q37 0 75 32v565q-37 31 -75 31z"/>
<glyph glyph-name="O" horiz-adv-x="706" unicode="O" d="M362 38q105 0 154.5 83t49.5 220q0 146 -59 233t-163 87q-98 0 -151 -84t-53 -214q0 -145 60 -235t162 -90zM346 -12q-142 0 -219 95t-77 261t88.5 266.5t222.5 100.5q128 0 211.5 -95t83.5 -254q0 -179 -79 -276.5t-231 -97.5z"/>
<glyph glyph-name="P" horiz-adv-x="543" unicode="P" d="M199 352l61 3q78 4 118 44t40 113q0 62 -34 102.5t-106 40.5q-47 0 -79 -8v-295zM40 0v36q37 0 75 32v565q-37 31 -75 31v36h110l129 5q229 0 229 -199q0 -91 -57 -138t-150 -57l-102 -7v-236q38 -32 75 -32v-36h-234z"/>
<glyph glyph-name="Q" horiz-adv-x="698" unicode="Q" d="M362 38q105 0 154.5 83t49.5 220q0 146 -59 233t-163 87q-98 0 -151 -84t-53 -214q0 -145 60 -235t162 -90zM150 -113l-7 11q26 49 69 55l104 36q-41 3 -70 13q-96 30 -146 119t-50 223q0 166 88.5 266.5t222.5 100.5q128 0 211.5 -95t83.5 -254q0 -164 -66.5 -259.5 t-194.5 -111.5l-115 -43q11 0 17 1q16 2 26 2q46 0 147 -29t152 -29q11 0 31 2l10 -12q-19 -28 -66 -59q-17 -4 -39 -4q-38 0 -93 17t-123.5 34.5t-138.5 17.5q-34 0 -53 -2z"/>
<glyph glyph-name="R" horiz-adv-x="597" unicode="R" d="M199 358l61 7q158 19 158 142q0 71 -37.5 109.5t-102.5 38.5q-47 0 -79 -8v-289zM40 664v36h110l129 5q115 0 172 -47t57 -135q0 -79 -44 -129.5t-119 -66.5q14 -9 36 -30l117 -205q31 -53 84 -66v-32h-66q-64 0 -96 49q-20 32 -71.5 125t-88.5 148l-61 -6v-242 q38 -32 75 -32v-36h-234v36q37 0 75 32v565q-37 31 -75 31z"/>
<glyph glyph-name="S" horiz-adv-x="497" unicode="S" d="M45 201h35l25 -98q55 -65 131 -65q50 0 90 33.5t40 75.5q0 54 -25 88t-117 91q-94 58 -133 101t-39 104q0 81 57.5 127.5t155.5 46.5q102 0 164 -49l9 -12q-1 -25 -5 -52t-7 -42l-4 -15h-32q-10 76 -28 92q-31 28 -93 28q-57 0 -94 -27.5t-37 -70.5q0 -39 30.5 -74.5 t109.5 -84.5q108 -67 141 -109.5t33 -107.5q0 -73 -62.5 -133t-158.5 -60q-57 0 -103.5 16.5t-64.5 33.5l-18 16v147z"/>
<glyph glyph-name="T" horiz-adv-x="566" unicode="T" d="M166 0v36q37 0 75 32v582h-145q-15 -19 -23 -55t-8 -64h-40v169h516v-169h-40q0 28 -8 64t-23 55h-145v-582q38 -32 75 -32v-36h-234z"/>
<glyph glyph-name="U" horiz-adv-x="667" unicode="U" d="M30 664v36h234v-36q-37 0 -75 -32v-398q0 -91 43.5 -143.5t125.5 -52.5q80 0 115 48t35 148v398q-38 32 -75 32v36h204v-36q-38 0 -75 -31v-399q0 -129 -50 -187.5t-156 -58.5q-251 0 -251 246v399q-37 31 -75 31z"/>
<glyph glyph-name="V" horiz-adv-x="635" unicode="V" d="M432 664v36h198v-36q-33 0 -70 -31l-200 -612l-9 -29h-31l-9 29l-231 612q-37 31 -75 31v36h241v-36q-35 0 -73 -32l176 -480l155 481q-37 31 -72 31z"/>
<glyph glyph-name="W" horiz-adv-x="938" unicode="W" d="M254 700v-36q-37 0 -74 -31l121 -449l6 -25l160 541h32l164 -517l3 -24l130 474q-37 31 -73 31v36h210v-36q-40 0 -77 -31l-185 -639h-37l-168 508l-157 -508h-36l-186 639q-37 31 -82 31v36h249z"/>
<glyph glyph-name="X" horiz-adv-x="656" unicode="X" d="M409 664v36h212v-36q-41 0 -79 -32l-174 -257l189 -307q38 -32 84 -32v-36h-256v36q34 0 72 32l-142 232l-159 -232q38 -32 71 -32v-36h-212v36q41 0 79 32l192 278l-172 287q-37 31 -84 31v36h257v-36q-35 0 -72 -31l125 -213l140 212q-38 32 -71 32z"/>
<glyph glyph-name="Y" horiz-adv-x="603" unicode="Y" d="M257 700v-36q-36 0 -73 -31l139 -275l145 275q-37 31 -74 31v36h204v-36q-35 0 -76 -31l-173 -338v-227q38 -32 75 -32v-36h-234v36q37 0 75 32v234l-175 331q-39 31 -80 31v36h247z"/>
<glyph glyph-name="Z" horiz-adv-x="515" unicode="Z" d="M461 0h-425l-11 29l338 621h-262q-15 -19 -23 -55t-8 -64h-40v169h425l13 -31l-332 -619h254q36 39 60 119h40z"/>
<glyph glyph-name="bracketleft" horiz-adv-x="344" unicode="[" d="M91 -250v950h257v-36l-182 -10v-858l182 -10v-36h-257z"/>
<glyph glyph-name="backslash" horiz-adv-x="376" unicode="\" d="M84 763l247 -1012l-71 -1l-244 1013h68z"/>
<glyph glyph-name="bracketright" horiz-adv-x="382" unicode="]" d="M253 700v-950h-257v36l182 10v858l-182 10v36h257z"/>
<glyph glyph-name="asciicircum" horiz-adv-x="357" unicode="^" d="M65 450h-57l155 250h30l157 -250h-57l-117 183z"/>
<glyph glyph-name="underscore" horiz-adv-x="480" unicode="_" d="M0 0v60h480v-60h-480z"/>
<glyph glyph-name="grave" horiz-adv-x="399" unicode="`" d="M225 705l59 -153l-30 -17l-123 170h94z"/>
<glyph glyph-name="a" horiz-adv-x="447" unicode="a" d="M112 134q0 -39 22.5 -60.5t61.5 -21.5q48 0 96 34v138h-17q-92 0 -148 -31q-15 -19 -15 -59zM63 469l10 11q67 31 142 31q82 0 119 -42t37 -139q0 -29 -5 -93t-5 -95q0 -46 8 -79q18 -11 47 -11h13v-30l-76 -28q-58 0 -58 62h-3l-59 -48q-30 -16 -72 -16q-59 0 -95 36.5 t-36 95.5t35 106q96 30 189 30q25 0 38 -1q0 1 1 31t1 45q0 126 -98 126q-45 0 -64 -23q-13 -16 -19 -75h-30q-20 51 -20 106z"/>
<glyph glyph-name="b" horiz-adv-x="521" unicode="b" d="M254 452q-47 0 -98 -25v-362q33 -23 82 -23q75 0 120.5 52.5t45.5 149.5q0 96 -39.5 152t-110.5 56zM156 744v-288l71 46q13 10 68 10q85 0 138 -64t53 -190q0 -111 -70 -188.5t-175 -77.5q-53 0 -104 24l-46 -17l-10 5v660l-71 22v31l138 33z"/>
<glyph glyph-name="c" horiz-adv-x="436" unicode="c" d="M381 494l-9 -123h-29q-9 60 -17 72q-13 19 -55 19q-70 0 -112 -50.5t-42 -151.5q0 -91 50.5 -149.5t120.5 -58.5q10 0 20.5 2t18 4.5t19 8.5t17 9t18.5 11.5t18 11.5l17 -32l-59 -47q-40 -32 -100 -32q-97 0 -159.5 69.5t-62.5 188.5q0 118 74 192t173 74q60 0 99 -18z "/>
<glyph glyph-name="d" horiz-adv-x="532" unicode="d" d="M370 86v356q-34 20 -83 20q-82 0 -126 -58.5t-44 -143.5q0 -90 44.5 -149t98.5 -59q34 0 55 6t55 28zM437 751l8 -6v-681q19 -12 58 -12h14v-30l-87 -27q-57 0 -57 61h-3l-59 -48q-32 -20 -82 -20q-77 0 -135.5 71t-58.5 187q0 106 68.5 186t176.5 80q54 0 90 -9v162 l-71 22v31z"/>
<glyph glyph-name="e" horiz-adv-x="468" unicode="e" d="M244 462q-49 0 -83 -39.5t-39 -101.5l216 21q0 67 -29.5 93.5t-64.5 26.5zM253 512q77 0 121 -46t44 -124q0 -16 -1 -25l-13 -20l-286 -19q-1 -9 -1 -28q0 -87 46.5 -142.5t120.5 -55.5q33 0 59.5 10.5t69.5 35.5l15 -31q-80 -55 -108 -66q-34 -13 -79 -13 q-91 0 -148.5 69t-57.5 189q0 117 63.5 191.5t154.5 74.5z"/>
<glyph glyph-name="f" horiz-adv-x="352" unicode="f" d="M385 721l7 -10q-3 -49 -15 -91h-30q-7 61 -20 72q-13 17 -51 17q-49 0 -75 -32t-26 -118v-59h153l-10 -50h-143v-386q15 -12 40.5 -21t40.5 -9v-34h-226v34q33 0 70 30v386h-67v39q48 10 67 32v58q0 91 51.5 131t126.5 40q69 0 107 -29z"/>
<glyph glyph-name="g" horiz-adv-x="514" unicode="g" d="M120 342q0 -137 125 -137q52 0 78.5 34.5t26.5 93.5t-34.5 96t-82.5 37q-113 0 -113 -124zM231 159q-23 0 -53 3q-12 -13 -28 -53q178 -19 244 -49.5t66 -91.5q0 -73 -65 -120.5t-157 -47.5q-100 0 -158 37t-58 114l74 77l14 -9l-15 -49q0 -56 41 -85t112 -29q62 0 98 25 t36 64q0 32 -26 50t-92 29l-164 26l-12 21q7 33 49 99q-96 42 -96 166q0 73 53.5 124.5t131.5 51.5q91 0 129 -31q53 27 93 27q15 0 27.5 -3t17.5 -6t6 -5q0 -1 0.5 -3t0.5 -3q0 -15 -10 -36t-16 -21q-1 0 -7.5 5.5t-18.5 10.5t-26 5l-35 -4q42 -47 42 -116q0 -79 -52 -126 t-146 -47z"/>
<glyph glyph-name="h" horiz-adv-x="568" unicode="h" d="M338 0v34q42 6 64 30v229q0 80 -29.5 119.5t-104.5 39.5q-47 0 -98 -25v-363q35 -30 64 -30v-34h-209v34q33 0 70 30v600q-23 22 -71 22v31l138 33l8 -6v-288l71 46q13 10 68 10q88 0 128 -49.5t40 -164.5v-234q35 -30 71 -30v-34h-210z"/>
<glyph glyph-name="i" horiz-adv-x="297" unicode="i" d="M97 685q0 23 14 38.5t37 15.5q22 0 36 -15.5t14 -38.5q0 -24 -14 -39.5t-36 -15.5q-23 0 -37 15.5t-14 39.5zM111 426q-23 22 -71 22v31l138 33l8 -6v-442q35 -30 71 -30v-34h-216v34q33 0 70 30v362z"/>
<glyph glyph-name="j" horiz-adv-x="252" unicode="j" d="M76 685q0 23 14 38.5t37 15.5q22 0 36 -15.5t14 -38.5q0 -24 -14 -39.5t-36 -15.5q-23 0 -37 15.5t-14 39.5zM172 506v-470q0 -154 -155 -236l-14 20q51 39 72.5 88.5t21.5 127.5v390q-23 22 -71 22v31l138 33z"/>
<glyph glyph-name="k" horiz-adv-x="521" unicode="k" d="M193 259v12l157 177q-18 13 -65 18v34h203v-34l-57 -18l-165 -156l144 -187q49 -65 111 -81v-28h-60q-64 0 -111 59q-22 28 -76 102t-69 94zM25 0v34q33 0 70 30v600q-23 22 -71 22v31l138 33l8 -6v-680q35 -30 71 -30v-34h-216z"/>
<glyph glyph-name="l" horiz-adv-x="291" unicode="l" d="M86 79v585q-23 22 -71 22v31l138 33l8 -6v-642q0 -34 21 -48q24 -15 101 -15v-32l-117 -19q-80 0 -80 91z"/>
<glyph glyph-name="m" horiz-adv-x="814" unicode="m" d="M25 0v34q33 0 70 30v368q-23 22 -71 22v31l138 33l8 -6v-56l71 46q13 10 68 10q46 0 73.5 -14.5t45.5 -48.5l83 53q16 10 68 10q79 0 111.5 -48.5t32.5 -165.5v-234q35 -30 71 -30v-34h-210v34q42 6 64 30v229q0 82 -22.5 120.5t-87.5 38.5q-48 0 -100 -26 q15 -48 15 -128v-234q27 -25 65 -30v-34h-204v34q42 6 64 30v229q0 82 -22.5 120.5t-87.5 38.5q-47 0 -98 -25v-363q27 -25 65 -30v-34h-210z"/>
<glyph glyph-name="n" horiz-adv-x="568" unicode="n" d="M338 0v34q42 6 64 30v229q0 80 -29.5 119.5t-104.5 39.5q-47 0 -98 -25v-363q28 -24 65 -30v-34h-210v34q33 0 70 30v368q-23 22 -71 22v31l138 33l8 -6v-56l71 46q16 10 68 10q88 0 128 -49.5t40 -164.5v-234q35 -30 71 -30v-34h-210z"/>
<glyph glyph-name="o" d="M274 38q144 0 144 206q0 95 -43 156.5t-113 61.5q-72 0 -108 -54.5t-36 -147.5q0 -94 44 -158t112 -64zM263 -12q-105 0 -166.5 70t-61.5 188q0 119 70 192.5t168 73.5q94 0 161 -69.5t67 -183.5q0 -127 -63 -199t-175 -72z" unicode="o"/>
<glyph glyph-name="p" horiz-adv-x="531" unicode="p" d="M264 452q-47 0 -98 -25v-363q35 -26 82 -26q75 0 120.5 54t45.5 152q0 96 -39.5 152t-110.5 56zM21 -200v34q33 0 70 30v568q-23 22 -71 22v31l138 33l8 -6v-56l71 46q16 10 68 10q85 0 138 -64t53 -190q0 -111 -70.5 -190.5t-174.5 -79.5q-42 0 -85 16v-140 q35 -30 71 -30v-34h-216z"/>
<glyph glyph-name="q" horiz-adv-x="519" unicode="q" d="M267 48q42 0 98 28v362q-36 24 -82 24q-75 0 -120.5 -52.5t-45.5 -149.5q0 -96 39.5 -154t110.5 -58zM295 -200v34q33 0 70 30v183l-71 -49q-13 -10 -68 -10q-84 0 -137.5 66t-53.5 192q0 111 70 188.5t175 77.5q47 0 104 -24l46 17l10 -5v-636q35 -30 71 -30v-34h-216z "/>
<glyph glyph-name="r" horiz-adv-x="370" unicode="r" d="M25 0v34q33 0 70 30v368q-23 22 -71 22v31l138 33l8 -6v-66l71 56q13 10 65 10q15 0 32 -4.5t26 -9.5l9 -4l7 -9q0 -23 -8 -42t-16.5 -28t-14.5 -9q-2 0 -3 1q-25 39 -75 39q-38 0 -93 -29v-353q35 -30 71 -30v-34h-216z"/>
<glyph glyph-name="s" horiz-adv-x="403" unicode="s" d="M45 151h31l20 -71q42 -42 98 -42q39 0 67 20t28 56q0 11 -2 20t-8.5 18t-10 14.5t-17 15t-19 13t-25 15.5t-26.5 16q-68 42 -99.5 78t-31.5 81q0 59 45.5 93t118.5 34t124 -40l7 -9q-1 -18 -5 -40t-8 -35l-3 -12h-29q-8 55 -21 66q-23 20 -74 20q-37 0 -62.5 -14.5 t-25.5 -43.5q0 -26 24 -48t89 -62q82 -50 107.5 -82t25.5 -82q0 -57 -52 -99.5t-125 -42.5q-48 0 -83 12t-47 24l-11 12v115z"/>
<glyph glyph-name="t" horiz-adv-x="334" unicode="t" d="M319 500l-10 -50h-153v-305q0 -46 17 -66.5t53 -20.5q31 0 81 14l9 -32l-119 -52q-57 0 -86.5 22.5t-29.5 78.5v361h-51v31q42 26 60 57.5t38 96.5h28v-135h163z"/>
<glyph glyph-name="u" horiz-adv-x="557" unicode="u" d="M456 506v-432q28 -26 77 -28v-31l-144 -27l-8 6v47l-71 -40q-21 -13 -78 -13q-81 0 -116 47t-35 167v224q-23 22 -71 22v31l138 33l8 -6v-299q0 -86 25.5 -122.5t83.5 -36.5q67 0 116 24v354q-23 22 -71 22v31l138 33z"/>
<glyph glyph-name="v" horiz-adv-x="518" unicode="v" d="M-26 466v34h235v-34q-36 0 -74 -30l135 -316l1 -16l129 332q-37 30 -73 30v34h196v-34q-36 0 -74 -30l-170 -442h-34l-198 442q-37 30 -73 30z"/>
<glyph glyph-name="w" horiz-adv-x="705" unicode="w" d="M705 500v-34q-35 0 -72 -30l-126 -442h-38l-123 357l-126 -357h-38l-145 442q-37 30 -72 30v34h229v-34q-14 0 -36 -8.5t-37 -21.5l90 -310l5 -25l132 399h25l119 -374l5 -25l89 335q-15 13 -37 21.5t-36 8.5v34h192z"/>
<glyph glyph-name="x" horiz-adv-x="499" unicode="x" d="M295 466v34h183v-34q-14 0 -37 -8.5t-38 -21.5l-114 -173l130 -199q10 -15 33.5 -22.5t41.5 -7.5v-34h-213v34q29 4 53 30l-95 154l-104 -154q22 -25 53 -30v-34h-183v34q14 0 37 8.5t38 21.5l133 188l-126 184q-11 15 -34 22.5t-41 7.5v34h213v-34q-29 -4 -53 -30 l86 -141l90 141q-22 25 -53 30z"/>
<glyph glyph-name="y" horiz-adv-x="484" unicode="y" d="M312 466v34h182v-34q-15 0 -36 -8t-33 -22l-148 -429q-37 -109 -38 -146q21 -18 54 -23v-38h-188v33q4 1 17.5 6t21.5 8t17.5 9t12.5 12l53 139l-192 429q-35 30 -70 30v34h209v-34q-35 -5 -58 -30l130 -303l14 -40l110 343q-21 24 -58 30z"/>
<glyph glyph-name="z" horiz-adv-x="445" unicode="z" d="M370 140h44v-140h-368l-13 21l278 429h-178q-13 -15 -21.5 -42.5t-8.5 -43.5h-44v136h346l6 -22l-271 -428h200q30 37 30 90z"/>
<glyph glyph-name="braceleft" horiz-adv-x="383" unicode="{" d="M11 223v12q80 45 92 104q5 28 5 50q0 29 -8.5 89.5t-8.5 94.5q0 71 38.5 99t106.5 28h112v-36l-92 -5q-50 -3 -70 -32t-20 -86q0 -25 7.5 -76t7.5 -78t-6 -55q-17 -70 -81 -100v-6q64 -30 81 -100q6 -28 6 -57t-7.5 -82.5t-7.5 -77.5q0 -57 20 -86t70 -32l92 -5v-36h-112 q-68 0 -106.5 28t-38.5 99q0 33 8.5 97t8.5 94q0 23 -5 51q-12 59 -92 104z"/>
<glyph glyph-name="bar" horiz-adv-x="287" unicode="|" d="M125 -250v950h50v-950h-50z"/>
<glyph glyph-name="braceright" horiz-adv-x="379" unicode="}" d="M368 235v-12q-80 -45 -92 -104q-5 -28 -5 -51q0 -30 8.5 -94t8.5 -97q0 -71 -38.5 -99t-106.5 -28h-112v36l92 5q50 3 70 32t20 86q0 24 -7.5 77.5t-7.5 82.5t6 57q17 70 81 100v6q-64 30 -81 100q-6 29 -6 55q0 27 7.5 78t7.5 76q0 57 -20 86t-70 32l-92 5v36h112 q68 0 106.5 -28t38.5 -99q0 -34 -8.5 -94.5t-8.5 -89.5q0 -22 5 -50q12 -59 92 -104z"/>
<glyph glyph-name="asciitilde" horiz-adv-x="417" unicode="~" d="M38 283l-18 22q49 69 99 69q38 0 101.5 -31t91.5 -31q36 0 65 34l20 -13q-29 -84 -97 -84q-36 0 -99 31.5t-87 31.5q-37 0 -76 -29z"/>
<glyph glyph-name="exclamdown" horiz-adv-x="284" unicode="¡" d="M187 460q0 -23 -14 -38.5t-37 -15.5q-22 0 -36 15.5t-14 38.5q0 24 14 39.5t36 15.5q23 0 37 -15.5t14 -39.5zM188 -181q-17 -10 -51 -10t-56 10l35 543h41z"/>
<glyph glyph-name="cent" horiz-adv-x="436" unicode="¢" d="M381 494l-9 -123h-29q-9 60 -17 72q-13 19 -55 19q-70 0 -112 -50.5t-42 -151.5q0 -91 50.5 -149.5t120.5 -58.5q10 0 20.5 2t18 4.5t19 8.5t17 9t18.5 11.5t18 11.5l17 -32l-59 -47q-34 -26 -76 -31v-97l-50 -10v108q-87 9 -141.5 77t-54.5 179q0 104 58 174.5t144 87.5 v84l50 10v-90q14 0 36 -2q30 -3 58 -16z"/>
<glyph glyph-name="sterling" horiz-adv-x="489" unicode="£" d="M42 355v50h72v88q0 96 51.5 135t124.5 39q81 0 143 -47l10 -12q0 -54 -16 -120h-35q-7 81 -23 100q-25 29 -75 29q-41 0 -70 -27t-29 -84q0 -45 2 -101h139l-10 -50h-127q3 -42 3 -81q0 -66 -19.5 -108t-71.5 -102q44 33 86 33q25 0 81 -11.5t74 -11.5q25 0 44 12t45 43 l24 -13q-2 -5 -11 -25t-11.5 -25t-10.5 -20t-12 -18.5t-13 -13t-16.5 -12t-18.5 -5.5t-24 -3q-30 0 -101.5 17t-90.5 17q-42 0 -101 -34l-21 32q43 58 63.5 105t20.5 106q0 19 -1.5 61.5t-1.5 56.5h-73z"/>
<glyph glyph-name="yen" horiz-adv-x="583" unicode="¥" d="M257 660v-36q-36 0 -73 -31l139 -255l145 255q-37 31 -74 31v36h204v-36q-35 0 -76 -31l-103 -188h110l-10 -50h-127q-6 -10 -16 -30l-16 -29h169l-10 -50h-170v-178q38 -32 75 -32v-36h-234v36q37 0 75 32v178h-177v50h169l-17 29q-12 20 -17 30h-135v50h108l-106 188 q-39 31 -80 31v36h247z"/>
<glyph glyph-name="section" horiz-adv-x="498" unicode="§" d="M236 440q-48 -42 -67 -65q-25 -31 -25 -64q0 -18 6 -33.5t13 -26t23.5 -24.5t25.5 -20t33 -20.5t32 -19.5q50 43 71.5 70.5t21.5 59.5q0 13 -3.5 25.5t-7.5 21.5t-14 19.5t-16 16.5t-21.5 16.5t-22 14.5t-25 15t-24.5 14zM444 316q0 -47 -29.5 -88.5t-94.5 -88.5 q48 -33 71 -65t23 -76q0 -68 -45 -104t-119 -36q-88 0 -147 50l-7 9q1 18 5 45t7 44l4 18h29q1 -5 2.5 -15.5t2 -15t2 -12.5t2.5 -12t2.5 -10.5t3.5 -10t4 -8t5 -8t7 -6.5q21 -18 76 -18q99 0 99 70q0 32 -23.5 54.5t-89.5 63.5q-51 31 -73.5 46.5t-48 40t-34 49.5t-8.5 60 q0 47 29 88t94 88q-48 33 -70.5 65.5t-22.5 76.5q0 68 45 104t119 36q88 0 147 -50l7 -9q-1 -18 -5 -45t-7 -44l-4 -18h-29q-1 5 -2.5 15.5t-2 15t-2 12.5t-2.5 12t-2.5 10.5t-3.5 10t-4 8t-5 8t-7 6.5q-21 18 -76 18q-99 0 -99 -70q0 -32 23.5 -54.5t89.5 -63.5 q51 -31 73.5 -46.5t48 -40t34 -49.5t8.5 -60z"/>
<glyph glyph-name="dieresis" horiz-adv-x="483" unicode="¨" d="M81 685q0 23 14 38.5t37 15.5q22 0 36 -15.5t14 -38.5q0 -24 -14 -39.5t-36 -15.5q-23 0 -37 15.5t-14 39.5zM278 685q0 23 14 38.5t37 15.5q22 0 36 -15.5t14 -38.5q0 -24 -14 -39.5t-36 -15.5q-23 0 -37 15.5t-14 39.5z"/>
<glyph glyph-name="copyright" horiz-adv-x="726" unicode="©" d="M16 300q0 154 98.5 254.5t246.5 100.5t246.5 -100.5t98.5 -254.5t-98.5 -254.5t-246.5 -100.5t-246.5 100.5t-98.5 254.5zM81 300q0 -132 78 -216t202 -84t202 84t78 216t-78 216t-202 84t-202 -84t-78 -216zM496 494l-9 -123h-29q-9 60 -17 72q-13 19 -60 19 q-56 0 -92.5 -38.5t-36.5 -113.5t36.5 -116.5t90.5 -41.5q12 0 23.5 1t20 2.5t18.5 5t15.5 5.5t15.5 7.5t13.5 8t14.5 9t14 8.5l17 -32l-59 -47q-40 -32 -107 -32q-86 0 -140.5 55.5t-54.5 152.5q0 102 63 159t156 57q68 0 107 -18z"/>
<glyph glyph-name="ordfeminine" horiz-adv-x="296" unicode="ª" d="M94 407q0 -21 12.5 -33.5t32.5 -12.5q37 0 69 29v65h-10q-64 0 -93 -18q-11 -13 -11 -30zM45 605l7 6q30 13 81 18q8 1 25 1q61 0 90 -25.5t29 -82.5q0 -19 -3 -55.5t-3 -53.5q0 -24 4 -43q12 -8 26 -8q1 0 4.5 0.5t5.5 0.5v-25l-49 -17q-18 0 -33 11t-15 30h-6l-24 -30 q-21 -12 -67 -12q-38 0 -65.5 20.5t-27.5 62.5q0 35 21 63q54 18 137 18q18 0 26 -1q0 1 1 17t1 25q0 39 -14.5 54t-48.5 15q-27 0 -39 -14q-5 -6 -11 -61h-41q-11 31 -11 86z"/>
<glyph glyph-name="guillemotleft" horiz-adv-x="377" unicode="«" d="M329 445l28 -23l-90 -143l90 -143l-28 -25l-154 168q154 165 154 166zM209 485l28 -23l-126 -183l126 -183l-28 -25l-204 208q204 205 204 206z"/>
<glyph glyph-name="logicalnot" horiz-adv-x="312" unicode="¬" d="M15 266v60h276v-150h-67v90h-209z"/>
<glyph glyph-name="registered" horiz-adv-x="574" unicode="®" d="M252 487l37 3q53 4 53 54q0 28 -12.5 39.5t-41.5 11.5q-26 0 -36 -3v-105zM140 599v28l156 2q58 0 84.5 -19t26.5 -60q0 -69 -79 -87q22 -6 33 -14l41 -64q20 -25 36 -32v-28h-33h-6q-36 0 -51 21q-5 8 -65 112l-31 -2v-79q13 -15 43 -24v-28h-155v28q9 1 25.5 9.5 t23.5 14.5v196q-19 19 -49 26zM68 474q0 -97 63.5 -164.5t158.5 -67.5t158 67.5t63 164.5t-63 164t-158 67t-158.5 -67t-63.5 -164zM13 474q0 115 79 195t198 80q116 0 196 -78t80 -197q0 -115 -78.5 -195.5t-197.5 -80.5q-115 0 -196 78.5t-81 197.5z"/>
<glyph glyph-name="macron" horiz-adv-x="387" unicode="¯" d="M56 633v48h267v-48h-267z"/>
<glyph glyph-name="degree" horiz-adv-x="187" unicode="°" d="M12 647q0 -34 19 -57t53 -23t52 23t18 57q0 33 -18 54t-52 21q-35 0 -53.5 -21.5t-18.5 -53.5zM-40 646q0 52 35 87.5t88 35.5q51 0 86.5 -36t35.5 -87q0 -53 -35 -89.5t-87 -36.5q-53 0 -88 36t-35 90z"/>
<glyph glyph-name="plusminus" horiz-adv-x="448" unicode="±" d="M25 281v60h163v165h66v-165h167v-60h-167v-142h-66v142h-163zM25 31v60h396v-60h-396z"/>
<glyph glyph-name="twosuperior" horiz-adv-x="252" unicode="²" d="M21 504l-3 93q40 34 111 34q46 0 73 -20.5t27 -56.5q0 -17 -6.5 -34t-22.5 -36.5t-28.5 -33t-39.5 -39.5t-40 -39h96q7 8 14 22.5t10 25.5l4 11l33 -6l-21 -102h-208l-7 29q11 11 33.5 34t32 33.5t26.5 28.5t24.5 29t16.5 25.5t12.5 26t3.5 23.5q0 29 -21 39l-11 3 q-4 1 -12 1q-24 0 -48 -16l-10 -75h-39z"/>
<glyph glyph-name="threesuperior" horiz-adv-x="271" unicode="³" d="M7 226v90h36l12 -59q18 -13 48 -13q39 0 59.5 27t20.5 67q0 75 -74 75l-39 -3v37q38 12 65.5 37t27.5 60q0 51 -50 51q-26 0 -47 -16l-11 -75h-38l-6 88q48 39 112 39q45 0 75.5 -23.5t30.5 -62.5q0 -62 -91 -100q45 -3 78 -28.5t33 -73.5q0 -66 -46 -100t-104 -34 q-39 0 -83 10z"/>
<glyph glyph-name="acute" horiz-adv-x="453" unicode="´" d="M191 552l59 153h94l-123 -170z"/>
<glyph glyph-name="mu" horiz-adv-x="557" unicode="µ" d="M456 506v-432q28 -26 77 -28v-31l-144 -27l-8 6v47l-36 -20q-1 0 -16.5 -12.5t-34 -16.5t-56.5 -4q-95 0 -117 122l11 -159l24 -201h-86l11 201v475q-23 22 -71 22v31l138 33l8 -6v-299q0 -86 25.5 -122.5t83.5 -36.5q67 0 116 24v354q-23 22 -71 22v31l138 33z"/>
<glyph glyph-name="mu" horiz-adv-x="557" unicode="μ" d="M456 506v-432q28 -26 77 -28v-31l-144 -27l-8 6v47l-36 -20q-1 0 -16.5 -12.5t-34 -16.5t-56.5 -4q-95 0 -117 122l11 -159l24 -201h-86l11 201v475q-23 22 -71 22v31l138 33l8 -6v-299q0 -86 25.5 -122.5t83.5 -36.5q67 0 116 24v354q-23 22 -71 22v31l138 33z"/>
<glyph glyph-name="paragraph" horiz-adv-x="435" unicode="¶" d="M296 220v431q-10 8 -29 8q-7 0 -10 -1q-19 -4 -33.5 -57t-14.5 -149q0 -123 10.5 -165t32.5 -56q16 -11 40 -11h4zM235 180q-32 0 -65.5 15t-66 45t-53 86t-20.5 128q0 70 19.5 121.5t50.5 78t62.5 38.5t63.5 12q29 0 78 -5.5t68 -5.5h63v-36q-38 0 -75 -31v-478 q0 -137 -36.5 -210.5t-137.5 -127.5l-27 25q137 115 137 282v71q-48 -8 -61 -8z"/>
<glyph glyph-name="periodcentered" horiz-adv-x="240" unicode="·" d="M177 317q0 -27 -16 -45t-41 -18q-26 0 -42 18t-16 45q0 26 16 43.5t42 17.5q25 0 41 -17.5t16 -43.5z"/>
<glyph glyph-name="cedilla" horiz-adv-x="413" unicode="¸" d="M238 29l46 -9l-39 -70q29 -17 42 -26t26.5 -29t13.5 -44q0 -37 -39 -65t-79 -28q-23 0 -44 8t-59 33l29 33q50 -33 94 -33q41 0 41 36q0 37 -96 82z"/>
<glyph glyph-name="onesuperior" horiz-adv-x="212" unicode="¹" d="M19 598v30h184v-30q-33 -6 -59 -25v-195q26 -19 59 -25v-30h-184v30q29 5 58 25v195q-29 20 -58 25z"/>
<glyph glyph-name="ordmasculine" horiz-adv-x="343" unicode="º" d="M181 355q84 0 84 116q0 57 -24 90t-68 33q-84 0 -84 -113q0 -55 24 -90.5t68 -35.5zM182 320q-77 0 -120 40.5t-43 112.5q0 73 46 115t109 42q76 0 118.5 -40.5t42.5 -109.5q0 -77 -43 -118.5t-110 -41.5z"/>
<glyph glyph-name="guillemotright" horiz-adv-x="377" unicode="»" d="M48 445l154 -166l-154 -168l-28 25l90 143l-90 143zM168 485l204 -206l-204 -208l-28 25l126 183l-126 183z"/>
<glyph glyph-name="onequarter" horiz-adv-x="708" unicode="¼" d="M69 700h184v-30q-33 -6 -59 -25v-195q26 -19 59 -25v-30h-184v30q29 5 58 25v195q-29 20 -58 25v30zM57 21l454 684l44 -23l-455 -689zM425 37l4 184l-137 -184h133zM490 305v-266h56v-39h-56v-114h-65v114h-180v33l200 272h45z"/>
<glyph glyph-name="onehalf" horiz-adv-x="698" unicode="½" d="M69 700h184v-30q-33 -6 -59 -25v-195q26 -19 59 -25v-30h-184v30q29 5 58 25v195q-29 20 -58 25v30zM348 274q40 34 111 34q46 0 73 -20.5t27 -56.5q0 -17 -6.5 -34t-22.5 -36.5t-28.5 -33t-39.5 -39.5t-40 -39h96q7 8 14 22.5t10 25.5l4 11l33 -6l-21 -102h-208l-7 29 q11 11 33.5 34t32 33.5t26.5 28.5t24.5 29t16.5 25.5t12.5 26t3.5 23.5q0 29 -21 39l-11 3q-4 1 -12 1q-24 0 -48 -16l-10 -75h-39zM57 21l454 684l44 -23l-455 -689z"/>
<glyph glyph-name="threequarters" horiz-adv-x="635" unicode="¾" d="M57 21l454 684l44 -23l-455 -689zM-3 388h36l12 -59q18 -13 48 -13q39 0 59.5 27t20.5 67q0 75 -74 75l-39 -3v37q38 12 65.5 37t27.5 60q0 51 -50 51q-26 0 -47 -16l-11 -75h-38l-6 88q48 39 112 39q45 0 75.5 -23.5t30.5 -62.5q0 -62 -91 -100q45 -3 78 -28.5t33 -73.5 q0 -66 -46 -100t-104 -34q-39 0 -83 10l-9 7v90zM424 37l4 184l-137 -184h133zM489 305v-266h56v-39h-56v-114h-65v114h-180v33l200 272h45z"/>
<glyph glyph-name="questiondown" horiz-adv-x="421" unicode="¿" d="M277 456q0 -23 -14 -38.5t-37 -15.5q-22 0 -36 15.5t-14 38.5q0 24 14 39.5t36 15.5q23 0 37 -15.5t14 -39.5zM368 -150q-6 -5 -17.5 -12.5t-49.5 -20t-78 -12.5q-75 0 -124 40t-49 121q0 23 2 33q5 48 34.5 92t61 71t57.5 56t26 50q0 12 -1.5 24t-3.5 18l-2 6l32 26 q25 -51 25 -123q0 -26 -15.5 -53.5t-31.5 -44.5t-48 -46t-42 -39q-44 -46 -44 -84q0 -43 33 -65t74 -22q71 0 93 23q18 19 23 93h27q14 -44 23 -117z"/>
<glyph glyph-name="Agrave" horiz-adv-x="599" unicode="À" d="M220 890l107 -144l-26 -20l-171 118zM290 580l-11 -53l-81 -241h173zM366 0v36q48 6 73 32l-52 168h-204l-53 -168q30 -27 71 -32v-36h-201v36q37 0 75 32l217 643h38l194 -643q38 -32 75 -32v-36h-233z"/>
<glyph glyph-name="Aacute" horiz-adv-x="599" unicode="Á" d="M283 746l107 144l90 -46l-171 -118zM279 527l-81 -241h173l-81 294zM366 36q48 6 73 32l-52 168h-204l-53 -168q30 -27 71 -32v-36h-201v36q37 0 75 32l217 643h38l194 -643q38 -32 75 -32v-36h-233v36z"/>
<glyph glyph-name="Acircumflex" horiz-adv-x="599" unicode="Â" d="M443 718l-134 88l-134 -88l-25 14l159 151l157 -151zM279 527l-81 -241h173l-81 294zM366 36q48 6 73 32l-52 168h-204l-53 -168q30 -27 71 -32v-36h-201v36q37 0 75 32l217 643h38l194 -643q38 -32 75 -32v-36h-233v36z"/>
<glyph glyph-name="Atilde" horiz-adv-x="599" unicode="Ã" d="M142 771l-14 29q51 57 120 57q26 0 69 -15.5t70 -15.5q49 0 83 31l14 -24q-38 -63 -110 -63q-27 0 -68.5 17t-65.5 17q-53 0 -98 -33zM290 580l-11 -53l-81 -241h173zM366 0v36q48 6 73 32l-52 168h-204l-53 -168q30 -27 71 -32v-36h-201v36q37 0 75 32l217 643h38 l194 -643q38 -32 75 -32v-36h-233z"/>
<glyph glyph-name="Adieresis" horiz-adv-x="599" unicode="Ä" d="M358 814q0 23 14 38.5t37 15.5q22 0 36 -15.5t14 -38.5q0 -24 -14 -39.5t-36 -15.5q-23 0 -37 15.5t-14 39.5zM161 814q0 23 14 38.5t37 15.5q22 0 36 -15.5t14 -38.5q0 -24 -14 -39.5t-36 -15.5q-23 0 -37 15.5t-14 39.5zM279 527l-81 -241h173l-81 294zM366 36 q48 6 73 32l-52 168h-204l-53 -168q30 -27 71 -32v-36h-201v36q37 0 75 32l217 643h38l194 -643q38 -32 75 -32v-36h-233v36z"/>
<glyph glyph-name="Aring" horiz-adv-x="599" unicode="Å" d="M257 779q0 -20 14 -32t39 -12q24 0 37.5 12t13.5 32q0 18 -13.5 29.5t-37.5 11.5q-25 0 -39 -11.5t-14 -29.5zM290 580l-11 -53l-81 -241h173zM221 778q0 35 25 57t63 22q37 0 62 -22t25 -57q0 -31 -17 -51.5t-46 -27.5l191 -631q38 -32 75 -32v-36h-233v36q48 6 73 32 l-52 168h-204l-53 -168q30 -27 71 -32v-36h-201v36q37 0 75 32l213 631q-30 5 -48.5 26t-18.5 53z"/>
<glyph glyph-name="AE" horiz-adv-x="871" unicode="Æ" d="M434 627l-14 -40l-162 -301h176v341zM434 700h364v-169h-40q0 28 -8 64t-23 55h-209v-267h150q18 20 27 79h40v-208h-40q-8 60 -27 79h-150v-268q31 -15 99 -15h108q36 39 60 119h40l-29 -169h-435v36q48 6 73 32v168h-203l-92 -168q30 -27 71 -32v-36h-215v36 q37 0 75 32z"/>
<glyph glyph-name="Ccedilla" horiz-adv-x="554" unicode="Ç" d="M342 52q16 0 32 3q70 13 143 61l17 -32l-47 -38q-77 -58 -171 -58l-21 -38q82 -48 82 -109q0 -40 -34.5 -67.5t-83.5 -27.5q-43 0 -105 37l31 39q50 -33 94 -33q39 0 39 36q0 44 -97 89l44 77q-105 14 -165 105.5t-60 245.5q0 165 86.5 264.5t218.5 99.5q110 0 161 -25 l10 -12v-11q0 -28 -7 -73.5t-15 -65.5h-31q-12 88 -25 107q-8 13 -37.5 21.5t-63.5 8.5q-96 0 -151.5 -76.5t-55.5 -218.5q0 -140 54.5 -224.5t157.5 -84.5z"/>
<glyph glyph-name="Egrave" d="M224 890l107 -144l-26 -20l-171 118zM40 664v36h439v-169h-40q0 28 -8 64t-23 55h-209v-267h150q18 20 27 79h40v-208h-40q-8 60 -27 79h-150v-268q31 -15 99 -15h108q36 39 60 119h40l-29 -169h-437v36q37 0 75 32v565q-37 31 -75 31z" unicode="È"/>
<glyph glyph-name="Eacute" d="M219 746l107 144l90 -46l-171 -118zM40 700h439v-169h-40q0 28 -8 64t-23 55h-209v-267h150q18 20 27 79h40v-208h-40q-8 60 -27 79h-150v-268q31 -15 99 -15h108q36 39 60 119h40l-29 -169h-437v36q37 0 75 32v565q-37 31 -75 31v36z" unicode="É"/>
<glyph glyph-name="Ecircumflex" d="M396 718l-134 88l-134 -88l-25 14l159 151l157 -151zM40 700h439v-169h-40q0 28 -8 64t-23 55h-209v-267h150q18 20 27 79h40v-208h-40q-8 60 -27 79h-150v-268q31 -15 99 -15h108q36 39 60 119h40l-29 -169h-437v36q37 0 75 32v565q-37 31 -75 31v36z" unicode="Ê"/>
<glyph glyph-name="Edieresis" d="M138 814q0 23 14 38.5t37 15.5q22 0 36 -15.5t14 -38.5q0 -24 -14 -39.5t-36 -15.5q-23 0 -37 15.5t-14 39.5zM335 814q0 23 14 38.5t37 15.5q22 0 36 -15.5t14 -38.5q0 -24 -14 -39.5t-36 -15.5q-23 0 -37 15.5t-14 39.5zM40 700h439v-169h-40q0 28 -8 64t-23 55h-209 v-267h150q18 20 27 79h40v-208h-40q-8 60 -27 79h-150v-268q31 -15 99 -15h108q36 39 60 119h40l-29 -169h-437v36q37 0 75 32v565q-37 31 -75 31v36z" unicode="Ë"/>
<glyph glyph-name="Igrave" horiz-adv-x="294" unicode="Ì" d="M94 890l107 -144l-26 -20l-171 118zM30 664v36h234v-36q-37 0 -75 -32v-564q38 -32 75 -32v-36h-234v36q37 0 75 32v564q-38 32 -75 32z"/>
<glyph glyph-name="Iacute" horiz-adv-x="294" unicode="Í" d="M104 746l107 144l90 -46l-171 -118zM30 700h234v-36q-37 0 -75 -32v-564q38 -32 75 -32v-36h-234v36q37 0 75 32v564q-38 32 -75 32v36z"/>
<glyph glyph-name="Icircumflex" horiz-adv-x="294" unicode="Î" d="M280 718l-134 88l-134 -88l-25 14l159 151l157 -151zM30 700h234v-36q-37 0 -75 -32v-564q38 -32 75 -32v-36h-234v36q37 0 75 32v564q-38 32 -75 32v36z"/>
<glyph glyph-name="Idieresis" horiz-adv-x="294" unicode="Ï" d="M4 814q0 23 14 38.5t37 15.5q22 0 36 -15.5t14 -38.5q0 -24 -14 -39.5t-36 -15.5q-23 0 -37 15.5t-14 39.5zM201 814q0 23 14 38.5t37 15.5q22 0 36 -15.5t14 -38.5q0 -24 -14 -39.5t-36 -15.5q-23 0 -37 15.5t-14 39.5zM30 700h234v-36q-37 0 -75 -32v-564 q38 -32 75 -32v-36h-234v36q37 0 75 32v564q-38 32 -75 32v36z"/>
<glyph glyph-name="Eth" horiz-adv-x="633" unicode="Ð" d="M288 50q105 0 165 78.5t60 227.5q0 147 -63 223t-163 76q-45 0 -88 -8v-244h112v-52h-112v-286q31 -15 89 -15zM35 351v52h80v230q-37 31 -75 31v36h116l148 5q134 0 216.5 -84t82.5 -259q0 -167 -79.5 -264.5t-224.5 -97.5h-259v36q37 0 75 32v283h-80z"/>
<glyph glyph-name="Ntilde" horiz-adv-x="677" unicode="Ñ" d="M165 771l-14 29q51 57 120 57q26 0 69 -15.5t70 -15.5q49 0 83 31l14 -24q-39 -63 -110 -63q-26 0 -68 17t-66 17q-53 0 -98 -33zM40 664v36h129l339 -499v432q-37 31 -75 31v36h204v-36q-38 0 -75 -31v-633h-29l-25 46l-339 503v-481q38 -32 75 -32v-36h-204v36 q37 0 75 32v565q-37 31 -75 31z"/>
<glyph glyph-name="Ograve" horiz-adv-x="686" unicode="Ò" d="M294 890l107 -144l-26 -20l-171 118zM352 38q105 0 154.5 83t49.5 220q0 146 -59 233t-163 87q-98 0 -151 -84t-53 -214q0 -145 60 -235t162 -90zM336 -12q-142 0 -219 95t-77 261t88.5 266.5t222.5 100.5q128 0 211.5 -95t83.5 -254q0 -179 -79 -276.5t-231 -97.5z"/>
<glyph glyph-name="Oacute" horiz-adv-x="686" unicode="Ó" d="M282 746l107 144l90 -46l-171 -118zM352 38q105 0 154.5 83t49.5 220q0 146 -59 233t-163 87q-98 0 -151 -84t-53 -214q0 -145 60 -235t162 -90zM336 -12q-142 0 -219 95t-77 261t88.5 266.5t222.5 100.5q128 0 211.5 -95t83.5 -254q0 -179 -79 -276.5t-231 -97.5z"/>
<glyph glyph-name="Ocircumflex" horiz-adv-x="686" unicode="Ô" d="M483 718l-134 88l-134 -88l-25 14l159 151l157 -151zM352 38q105 0 154.5 83t49.5 220q0 146 -59 233t-163 87q-98 0 -151 -84t-53 -214q0 -145 60 -235t162 -90zM336 -12q-142 0 -219 95t-77 261t88.5 266.5t222.5 100.5q128 0 211.5 -95t83.5 -254q0 -179 -79 -276.5 t-231 -97.5z"/>
<glyph glyph-name="Otilde" horiz-adv-x="686" unicode="Õ" d="M186 771l-14 29q51 57 120 57q26 0 69 -15.5t70 -15.5q49 0 83 31l14 -24q-39 -63 -110 -63q-26 0 -68 17t-66 17q-53 0 -98 -33zM352 38q105 0 154.5 83t49.5 220q0 146 -59 233t-163 87q-98 0 -151 -84t-53 -214q0 -145 60 -235t162 -90zM336 -12q-142 0 -219 95 t-77 261t88.5 266.5t222.5 100.5q128 0 211.5 -95t83.5 -254q0 -179 -79 -276.5t-231 -97.5z"/>
<glyph glyph-name="Odieresis" horiz-adv-x="686" unicode="Ö" d="M388 814q0 23 14 38.5t37 15.5q22 0 36 -15.5t14 -38.5q0 -24 -14 -39.5t-36 -15.5q-23 0 -37 15.5t-14 39.5zM191 814q0 23 14 38.5t37 15.5q22 0 36 -15.5t14 -38.5q0 -24 -14 -39.5t-36 -15.5q-23 0 -37 15.5t-14 39.5zM352 38q105 0 154.5 83t49.5 220q0 146 -59 233 t-163 87q-98 0 -151 -84t-53 -214q0 -145 60 -235t162 -90zM336 -12q-142 0 -219 95t-77 261t88.5 266.5t222.5 100.5q128 0 211.5 -95t83.5 -254q0 -179 -79 -276.5t-231 -97.5z"/>
<glyph glyph-name="multiply" horiz-adv-x="364" unicode="×" d="M290 407l35 -35l-108 -108l110 -109l-38 -37l-109 109l-108 -109l-36 36l109 108l-109 110l37 36l109 -109z"/>
<glyph glyph-name="Oslash" horiz-adv-x="686" unicode="Ø" d="M352 38q105 0 154.5 83t49.5 220q0 171 -79 258l-209 -542q37 -19 84 -19zM130 363q0 -179 86 -268l209 544q-42 22 -91 22q-98 0 -151 -84t-53 -214zM336 -12q-48 0 -90 12l-42 -111l-54 34l38 100q-72 40 -110 123t-38 198q0 166 88.5 266.5t222.5 100.5q47 0 95 -16 l41 106l53 -38l-37 -96q67 -43 105 -121.5t38 -183.5q0 -179 -79 -276.5t-231 -97.5z"/>
<glyph glyph-name="Ugrave" horiz-adv-x="663" unicode="Ù" d="M284 890l107 -144l-26 -20l-171 118zM28 664v36h234v-36q-37 0 -75 -32v-398q0 -91 43.5 -143.5t125.5 -52.5q80 0 115 48t35 148v398q-38 32 -75 32v36h204v-36q-38 0 -75 -31v-399q0 -129 -50 -187.5t-156 -58.5q-251 0 -251 246v399q-37 31 -75 31z"/>
<glyph glyph-name="Uacute" horiz-adv-x="663" unicode="Ú" d="M295 746l107 144l90 -46l-171 -118zM28 700h234v-36q-37 0 -75 -32v-398q0 -91 43.5 -143.5t125.5 -52.5q80 0 115 48t35 148v398q-38 32 -75 32v36h204v-36q-38 0 -75 -31v-399q0 -129 -50 -187.5t-156 -58.5q-251 0 -251 246v399q-37 31 -75 31v36z"/>
<glyph glyph-name="Ucircumflex" horiz-adv-x="663" unicode="Û" d="M476 718l-134 88l-134 -88l-25 14l159 151l157 -151zM28 700h234v-36q-37 0 -75 -32v-398q0 -91 43.5 -143.5t125.5 -52.5q80 0 115 48t35 148v398q-38 32 -75 32v36h204v-36q-38 0 -75 -31v-399q0 -129 -50 -187.5t-156 -58.5q-251 0 -251 246v399q-37 31 -75 31v36z "/>
<glyph glyph-name="Udieresis" horiz-adv-x="663" unicode="Ü" d="M191 814q0 23 14 38.5t37 15.5q22 0 36 -15.5t14 -38.5q0 -24 -14 -39.5t-36 -15.5q-23 0 -37 15.5t-14 39.5zM388 814q0 23 14 38.5t37 15.5q22 0 36 -15.5t14 -38.5q0 -24 -14 -39.5t-36 -15.5q-23 0 -37 15.5t-14 39.5zM28 700h234v-36q-37 0 -75 -32v-398 q0 -91 43.5 -143.5t125.5 -52.5q80 0 115 48t35 148v398q-38 32 -75 32v36h204v-36q-38 0 -75 -31v-399q0 -129 -50 -187.5t-156 -58.5q-251 0 -251 246v399q-37 31 -75 31v36z"/>
<glyph glyph-name="Yacute" horiz-adv-x="583" unicode="Ý" d="M270 746l107 144l90 -46l-171 -118zM242 700v-36q-36 0 -73 -31l139 -275l145 275q-37 31 -74 31v36h204v-36q-35 0 -76 -31l-173 -338v-227q38 -32 75 -32v-36h-234v36q37 0 75 32v234l-175 331q-39 31 -80 31v36h247z"/>
<glyph glyph-name="Thorn" horiz-adv-x="553" unicode="Þ" d="M199 209l61 3q78 4 118 44t40 113q0 62 -34 102.5t-106 40.5q-47 0 -79 -8v-295zM40 0v36q37 0 75 32v565q-27 31 -75 31v36h241v-36q-57 -2 -82 -31v-77l80 6q229 0 229 -199q0 -91 -57 -138t-150 -57l-102 -7v-93q38 -32 75 -32v-36h-234z"/>
<glyph glyph-name="agrave" horiz-adv-x="448" unicode="à" d="M211 705l59 -153l-30 -17l-123 170h94zM107 134q0 -39 22.5 -60.5t61.5 -21.5q48 0 96 34v138h-17q-92 0 -148 -31q-15 -19 -15 -59zM58 469l10 11q67 31 142 31q82 0 119 -42t37 -139q0 -29 -5 -93t-5 -95q0 -46 8 -79q18 -11 47 -11h13v-30l-76 -28q-58 0 -58 62h-3 l-59 -48q-30 -16 -72 -16q-59 0 -95 36.5t-36 95.5t35 106q96 30 189 30q25 0 38 -1q0 1 1 31t1 45q0 126 -98 126q-45 0 -64 -23q-13 -16 -19 -75h-30q-20 51 -20 106z"/>
<glyph glyph-name="aacute" horiz-adv-x="448" unicode="á" d="M166 552l59 153h94l-123 -170zM107 134q0 -39 22.5 -60.5t61.5 -21.5q48 0 96 34v138h-17q-92 0 -148 -31q-15 -19 -15 -59zM68 480q67 31 142 31q82 0 119 -42t37 -139q0 -29 -5 -93t-5 -95q0 -46 8 -79q18 -11 47 -11h13v-30l-76 -28q-58 0 -58 62h-3l-59 -48 q-30 -16 -72 -16q-59 0 -95 36.5t-36 95.5t35 106q96 30 189 30q25 0 38 -1q0 1 1 31t1 45q0 126 -98 126q-45 0 -64 -23q-13 -16 -19 -75h-30q-20 51 -20 106z"/>
<glyph glyph-name="acircumflex" horiz-adv-x="448" unicode="â" d="M277 542l-84 119l-93 -119h-40l113 163h56l127 -163h-79zM107 134q0 -39 22.5 -60.5t61.5 -21.5q48 0 96 34v138h-17q-92 0 -148 -31q-15 -19 -15 -59zM68 480q67 31 142 31q82 0 119 -42t37 -139q0 -29 -5 -93t-5 -95q0 -46 8 -79q18 -11 47 -11h13v-30l-76 -28 q-58 0 -58 62h-3l-59 -48q-30 -16 -72 -16q-59 0 -95 36.5t-36 95.5t35 106q96 30 189 30q25 0 38 -1q0 1 1 31t1 45q0 126 -98 126q-45 0 -64 -23q-13 -16 -19 -75h-30q-20 51 -20 106z"/>
<glyph glyph-name="atilde" horiz-adv-x="448" unicode="ã" d="M74 611l-14 29q25 31 47 44t53 13q27 0 68 -15.5t63 -15.5q37 0 71 31l14 -24q-38 -63 -94 -63q-26 0 -66 17t-64 17q-38 0 -78 -33zM107 134q0 -39 22.5 -60.5t61.5 -21.5q48 0 96 34v138h-17q-92 0 -148 -31q-15 -19 -15 -59zM58 469l10 11q67 31 142 31q82 0 119 -42 t37 -139q0 -29 -5 -93t-5 -95q0 -46 8 -79q18 -11 47 -11h13v-30l-76 -28q-58 0 -58 62h-3l-59 -48q-30 -16 -72 -16q-59 0 -95 36.5t-36 95.5t35 106q96 30 189 30q25 0 38 -1q0 1 1 31t1 45q0 126 -98 126q-45 0 -64 -23q-13 -16 -19 -75h-30q-20 51 -20 106z"/>
<glyph glyph-name="adieresis" horiz-adv-x="448" unicode="ä" d="M248 685q0 23 14 38.5t37 15.5q22 0 36 -15.5t14 -38.5q0 -24 -14 -39.5t-36 -15.5q-23 0 -37 15.5t-14 39.5zM51 685q0 23 14 38.5t37 15.5q22 0 36 -15.5t14 -38.5q0 -24 -14 -39.5t-36 -15.5q-23 0 -37 15.5t-14 39.5zM107 134q0 -39 22.5 -60.5t61.5 -21.5 q48 0 96 34v138h-17q-92 0 -148 -31q-15 -19 -15 -59zM68 480q67 31 142 31q82 0 119 -42t37 -139q0 -29 -5 -93t-5 -95q0 -46 8 -79q18 -11 47 -11h13v-30l-76 -28q-58 0 -58 62h-3l-59 -48q-30 -16 -72 -16q-59 0 -95 36.5t-36 95.5t35 106q96 30 189 30q25 0 38 -1 q0 1 1 31t1 45q0 126 -98 126q-45 0 -64 -23q-13 -16 -19 -75h-30q-20 51 -20 106z"/>
<glyph glyph-name="aring" horiz-adv-x="448" unicode="å" d="M159 639q0 -24 14 -39t39 -15q24 0 37.5 15t13.5 39q0 22 -13.5 36.5t-37.5 14.5q-25 0 -39 -14.5t-14 -36.5zM124 638q0 36 25 61.5t62 25.5q36 0 61 -25.5t25 -61.5q0 -38 -24.5 -63.5t-61.5 -25.5t-62 25.5t-25 63.5zM107 134q0 -39 22.5 -60.5t61.5 -21.5q48 0 96 34 v138h-17q-92 0 -148 -31q-15 -19 -15 -59zM58 469l10 11q67 31 142 31q82 0 119 -42t37 -139q0 -29 -5 -93t-5 -95q0 -46 8 -79q18 -11 47 -11h13v-30l-76 -28q-58 0 -58 62h-3l-59 -48q-30 -16 -72 -16q-59 0 -95 36.5t-36 95.5t35 106q96 30 189 30q25 0 38 -1q0 1 1 31 t1 45q0 126 -98 126q-45 0 -64 -23q-13 -16 -19 -75h-30q-20 51 -20 106z"/>
<glyph glyph-name="ae" horiz-adv-x="700" unicode="æ" d="M491 462q-53 0 -88.5 -43t-35.5 -124l218 47q0 67 -29.5 93.5t-64.5 26.5zM107 134q0 -39 22.5 -60.5t61.5 -21.5q43 0 96 38v154q-96 -14 -165 -51q-15 -19 -15 -59zM500 512q77 0 121 -46t44 -124q0 -16 -1 -25l-13 -20l-286 -39q-1 -8 -1 -34q0 -82 38 -127t109 -45 q32 0 59.5 6.5t44 14.5t45.5 25l15 -31q-80 -55 -108 -66q-34 -13 -79 -13q-117 0 -181 80l-79 -60q-30 -16 -72 -16q-59 0 -95 36.5t-36 95.5t35 106q90 38 227 49q0 1 1 21t1 35q0 126 -98 126q-45 0 -64 -23q-13 -16 -19 -75h-30q-20 51 -20 106l10 11q69 31 142 31 q122 0 140 -89q23 45 63 67.5t87 22.5z"/>
<glyph glyph-name="ccedilla" horiz-adv-x="436" unicode="ç" d="M381 494l-9 -123h-29q-9 60 -17 72q-13 19 -55 19q-70 0 -112 -50.5t-42 -151.5q0 -79 39.5 -134.5t98.5 -69.5q15 -4 33 -4q10 0 20.5 2t18 4.5t19 8.5t17 9t18.5 11.5t18 11.5l17 -32q-1 -1 -20 -18.5t-33 -28t-42.5 -21.5t-59.5 -11l-21 -38q29 -17 42 -26t26.5 -29 t13.5 -44q0 -37 -39 -65t-79 -28q-42 0 -103 41l29 33q50 -33 94 -33q41 0 41 36q0 37 -96 82l43 76q-79 15 -128 81.5t-49 171.5q0 118 74 192t173 74q60 0 99 -18z"/>
<glyph glyph-name="egrave" horiz-adv-x="453" unicode="è" d="M225 705l59 -153l-30 -17l-123 170h94zM244 462q-49 0 -83 -39.5t-39 -101.5l216 21q0 67 -29.5 93.5t-64.5 26.5zM253 512q77 0 121 -46t44 -124q0 -16 -1 -25l-13 -20l-286 -19q-1 -9 -1 -28q0 -87 46.5 -142.5t120.5 -55.5q33 0 59.5 10.5t69.5 35.5l15 -31 q-80 -55 -108 -66q-34 -13 -79 -13q-91 0 -148.5 69t-57.5 189q0 117 63.5 191.5t154.5 74.5z"/>
<glyph glyph-name="eacute" horiz-adv-x="453" unicode="é" d="M181 552l59 153h94l-123 -170zM244 462q-49 0 -83 -39.5t-39 -101.5l216 21q0 67 -29.5 93.5t-64.5 26.5zM253 512q77 0 121 -46t44 -124q0 -16 -1 -25l-13 -20l-286 -19q-1 -9 -1 -28q0 -87 46.5 -142.5t120.5 -55.5q33 0 59.5 10.5t69.5 35.5l15 -31q-80 -55 -108 -66 q-34 -13 -79 -13q-91 0 -148.5 69t-57.5 189q0 117 63.5 191.5t154.5 74.5z"/>
<glyph glyph-name="ecircumflex" horiz-adv-x="453" unicode="ê" d="M327 542l-84 119l-93 -119h-40l113 163h56l127 -163h-79zM244 462q-49 0 -83 -39.5t-39 -101.5l216 21q0 67 -29.5 93.5t-64.5 26.5zM253 512q77 0 121 -46t44 -124q0 -16 -1 -25l-13 -20l-286 -19q-1 -9 -1 -28q0 -87 46.5 -142.5t120.5 -55.5q33 0 59.5 10.5t69.5 35.5 l15 -31q-80 -55 -108 -66q-34 -13 -79 -13q-91 0 -148.5 69t-57.5 189q0 117 63.5 191.5t154.5 74.5z"/>
<glyph glyph-name="edieresis" horiz-adv-x="453" unicode="ë" d="M278 685q0 23 14 38.5t37 15.5q22 0 36 -15.5t14 -38.5q0 -24 -14 -39.5t-36 -15.5q-23 0 -37 15.5t-14 39.5zM81 685q0 23 14 38.5t37 15.5q22 0 36 -15.5t14 -38.5q0 -24 -14 -39.5t-36 -15.5q-23 0 -37 15.5t-14 39.5zM244 462q-49 0 -83 -39.5t-39 -101.5l216 21 q0 67 -29.5 93.5t-64.5 26.5zM253 512q77 0 121 -46t44 -124q0 -16 -1 -25l-13 -20l-286 -19q-1 -9 -1 -28q0 -87 46.5 -142.5t120.5 -55.5q33 0 59.5 10.5t69.5 35.5l15 -31q-80 -55 -108 -66q-34 -13 -79 -13q-91 0 -148.5 69t-57.5 189q0 117 63.5 191.5t154.5 74.5z"/>
<glyph glyph-name="igrave" horiz-adv-x="261" unicode="ì" d="M98 705l59 -153l-30 -17l-123 170h94zM95 64v362q-23 22 -71 22v31l138 33l8 -6v-442q35 -30 71 -30v-34h-216v34q33 0 70 30z"/>
<glyph glyph-name="iacute" horiz-adv-x="261" unicode="í" d="M77 552l59 153h94l-123 -170zM95 426q-23 22 -71 22v31l138 33l8 -6v-442q35 -30 71 -30v-34h-216v34q33 0 70 30v362z"/>
<glyph glyph-name="icircumflex" horiz-adv-x="261" unicode="î" d="M194 542l-84 119l-93 -119h-40l113 163h56l127 -163h-79zM95 426q-23 22 -71 22v31l138 33l8 -6v-442q35 -30 71 -30v-34h-216v34q33 0 70 30v362z"/>
<glyph glyph-name="idieresis" horiz-adv-x="282" unicode="ï" d="M177 685q0 23 14 38.5t37 15.5q22 0 36 -15.5t14 -38.5q0 -24 -14 -39.5t-36 -15.5q-23 0 -37 15.5t-14 39.5zM-20 685q0 23 14 38.5t37 15.5q22 0 36 -15.5t14 -38.5q0 -24 -14 -39.5t-36 -15.5q-23 0 -37 15.5t-14 39.5zM95 426q-23 22 -71 22v31l138 33l8 -6v-442 q35 -30 71 -30v-34h-216v34q33 0 70 30v362z"/>
<glyph glyph-name="eth" horiz-adv-x="541" unicode="ð" d="M274 38q144 0 144 200q0 98 -42.5 153.5t-113.5 55.5t-107.5 -54.5t-36.5 -135.5q0 -94 44 -156.5t112 -62.5zM186 594l54 33q-49 37 -94 59l46 27q59 -35 92 -59l64 39l28 -37l-53 -33q80 -69 129 -165t49 -199q0 -127 -63 -199t-175 -72q-104 0 -166 69t-62 183 q0 112 69 184.5t161 72.5q69 0 114 -40q-29 70 -102 138l-62 -39z"/>
<glyph glyph-name="ntilde" horiz-adv-x="568" unicode="ñ" d="M120 611l-14 29q25 31 47 44t53 13q27 0 68 -15.5t63 -15.5q37 0 71 31l14 -24q-39 -63 -94 -63q-26 0 -66 17t-64 17q-38 0 -78 -33zM338 0v34q42 6 64 30v229q0 80 -29.5 119.5t-104.5 39.5q-47 0 -98 -25v-363q28 -24 65 -30v-34h-210v34q33 0 70 30v368 q-23 22 -71 22v31l138 33l8 -6v-56l71 46q16 10 68 10q88 0 128 -49.5t40 -164.5v-234q35 -30 71 -30v-34h-210z"/>
<glyph glyph-name="ograve" d="M236 705l59 -153l-30 -17l-123 170h94zM274 38q144 0 144 206q0 95 -43 156.5t-113 61.5q-72 0 -108 -54.5t-36 -147.5q0 -94 44 -158t112 -64zM263 -12q-105 0 -166.5 70t-61.5 188q0 119 70 192.5t168 73.5q94 0 161 -69.5t67 -183.5q0 -127 -63 -199t-175 -72z" unicode="ò"/>
<glyph glyph-name="oacute" d="M218 552l59 153h94l-123 -170zM274 38q144 0 144 206q0 95 -43 156.5t-113 61.5q-72 0 -108 -54.5t-36 -147.5q0 -94 44 -158t112 -64zM263 -12q-105 0 -166.5 70t-61.5 188q0 119 70 192.5t168 73.5q94 0 161 -69.5t67 -183.5q0 -127 -63 -199t-175 -72z" unicode="ó"/>
<glyph glyph-name="ocircumflex" d="M351 542l-84 119l-93 -119h-40l113 163h56l127 -163h-79zM274 38q144 0 144 206q0 95 -43 156.5t-113 61.5q-72 0 -108 -54.5t-36 -147.5q0 -94 44 -158t112 -64zM263 -12q-105 0 -166.5 70t-61.5 188q0 119 70 192.5t168 73.5q94 0 161 -69.5t67 -183.5q0 -127 -63 -199 t-175 -72z" unicode="ô"/>
<glyph glyph-name="otilde" d="M124 611l-14 29q25 31 47 44t53 13q27 0 68 -15.5t63 -15.5q37 0 71 31l14 -24q-39 -63 -94 -63q-27 0 -66.5 17t-63.5 17q-38 0 -78 -33zM274 38q144 0 144 206q0 95 -43 156.5t-113 61.5q-72 0 -108 -54.5t-36 -147.5q0 -94 44 -158t112 -64zM263 -12q-105 0 -166.5 70 t-61.5 188q0 119 70 192.5t168 73.5q94 0 161 -69.5t67 -183.5q0 -127 -63 -199t-175 -72z" unicode="õ"/>
<glyph glyph-name="odieresis" d="M313 685q0 23 14 38.5t37 15.5q22 0 36 -15.5t14 -38.5q0 -24 -14 -39.5t-36 -15.5q-23 0 -37 15.5t-14 39.5zM116 685q0 23 14 38.5t37 15.5q22 0 36 -15.5t14 -38.5q0 -24 -14 -39.5t-36 -15.5q-23 0 -37 15.5t-14 39.5zM274 38q144 0 144 206q0 95 -43 156.5 t-113 61.5q-72 0 -108 -54.5t-36 -147.5q0 -94 44 -158t112 -64zM263 -12q-105 0 -166.5 70t-61.5 188q0 119 70 192.5t168 73.5q94 0 161 -69.5t67 -183.5q0 -127 -63 -199t-175 -72z" unicode="ö"/>
<glyph glyph-name="divide" horiz-adv-x="428" unicode="÷" d="M273 447q0 -27 -16 -45t-41 -18q-26 0 -42 18t-16 45q0 26 16 43.5t42 17.5q25 0 41 -17.5t16 -43.5zM273 140q0 -27 -16 -45t-41 -18q-26 0 -42 18t-16 45q0 26 16 43.5t42 17.5q25 0 41 -17.5t16 -43.5zM411 266h-396v60h396v-60z"/>
<glyph glyph-name="oslash" d="M274 38q144 0 144 206q0 102 -49 164l-154 -356q28 -14 59 -14zM262 462q-72 0 -108 -54.5t-36 -147.5q0 -105 52 -170l153 357q-32 15 -61 15zM263 -12q-34 0 -71 10l-45 -105l-48 30l41 97q-105 66 -105 226q0 119 70 192.5t168 73.5q37 0 72 -12l37 85l49 -33l-34 -78 q48 -33 76 -88.5t28 -126.5q0 -127 -63 -199t-175 -72z" unicode="ø"/>
<glyph glyph-name="ugrave" horiz-adv-x="557" unicode="ù" d="M238 705l59 -153l-30 -17l-123 170h94zM456 506v-432q28 -26 77 -28v-31l-144 -27l-8 6v47l-71 -40q-21 -13 -78 -13q-81 0 -116 47t-35 167v224q-23 22 -71 22v31l138 33l8 -6v-299q0 -86 25.5 -122.5t83.5 -36.5q67 0 116 24v354q-23 22 -71 22v31l138 33z"/>
<glyph glyph-name="uacute" horiz-adv-x="557" unicode="ú" d="M212 552l59 153h94l-123 -170zM456 74q28 -26 77 -28v-31l-144 -27l-8 6v47l-71 -40q-21 -13 -78 -13q-81 0 -116 47t-35 167v224q-23 22 -71 22v31l138 33l8 -6v-299q0 -86 25.5 -122.5t83.5 -36.5q67 0 116 24v354q-23 22 -71 22v31l138 33l8 -6v-432z"/>
<glyph glyph-name="ucircumflex" horiz-adv-x="557" unicode="û" d="M340 542l-84 119l-93 -119h-40l113 163h56l127 -163h-79zM456 74q28 -26 77 -28v-31l-144 -27l-8 6v47l-71 -40q-21 -13 -78 -13q-81 0 -116 47t-35 167v224q-23 22 -71 22v31l138 33l8 -6v-299q0 -86 25.5 -122.5t83.5 -36.5q67 0 116 24v354q-23 22 -71 22v31l138 33 l8 -6v-432z"/>
<glyph glyph-name="udieresis" horiz-adv-x="557" unicode="ü" d="M107 685q0 23 14 38.5t37 15.5q22 0 36 -15.5t14 -38.5q0 -24 -14 -39.5t-36 -15.5q-23 0 -37 15.5t-14 39.5zM304 685q0 23 14 38.5t37 15.5q22 0 36 -15.5t14 -38.5q0 -24 -14 -39.5t-36 -15.5q-23 0 -37 15.5t-14 39.5zM456 74q28 -26 77 -28v-31l-144 -27l-8 6v47 l-71 -40q-21 -13 -78 -13q-81 0 -116 47t-35 167v224q-23 22 -71 22v31l138 33l8 -6v-299q0 -86 25.5 -122.5t83.5 -36.5q67 0 116 24v354q-23 22 -71 22v31l138 33l8 -6v-432z"/>
<glyph glyph-name="yacute" horiz-adv-x="484" unicode="ý" d="M207 552l59 153h94l-123 -170zM312 466v34h182v-34q-15 0 -36 -8t-33 -22l-148 -429q-37 -109 -38 -150q21 -18 54 -23v-34h-188v29q4 1 17.5 6t21.5 8t17.5 9t12.5 12l53 143l-192 429q-35 30 -70 30v34h209v-34q-35 -5 -58 -30l130 -303l14 -40l110 343q-21 24 -58 30z "/>
<glyph glyph-name="thorn" horiz-adv-x="535" unicode="þ" d="M268 452q-47 0 -98 -25v-363q35 -26 82 -26q75 0 120.5 54t45.5 152q0 96 -39.5 152t-110.5 56zM25 -200v34q33 0 70 30v779q-23 22 -71 22v31l138 33l8 -6v-267l71 46q16 10 68 10q85 0 138 -64t53 -190q0 -111 -70.5 -190.5t-174.5 -79.5q-42 0 -85 16v-140 q35 -30 71 -30v-34h-216z"/>
<glyph glyph-name="OE" horiz-adv-x="1002" unicode="Œ" d="M362 38q105 0 154.5 83t49.5 220q0 146 -59 233t-163 87q-98 0 -151 -84t-53 -214q0 -145 60 -235t162 -90zM566 700h364v-169h-40q0 28 -8 64t-23 55h-209v-267h150q18 20 27 79h40v-208h-40q-8 60 -27 79h-150v-268q31 -15 99 -15h108q36 39 60 119h40l-29 -169h-362 v83q-74 -95 -220 -95q-142 0 -219 95t-77 261t88.5 266.5t222.5 100.5q128 0 205 -100v89z"/>
<glyph glyph-name="oe" horiz-adv-x="837" unicode="œ" d="M628 462q-49 0 -83 -39.5t-39 -101.5l216 21q0 67 -29.5 93.5t-64.5 26.5zM274 38q144 0 144 206q0 95 -43 156.5t-113 61.5q-72 0 -108 -54.5t-36 -147.5q0 -94 44 -158t112 -64zM637 512q77 0 121 -46t44 -124q0 -16 -1 -25l-13 -20l-286 -19q-2 -8 -2 -14q0 -3 0.5 -9 t0.5 -9q1 -86 47 -140t120 -54q33 0 59.5 10.5t69.5 35.5l15 -31q-80 -55 -108 -66q-34 -13 -79 -13q-113 0 -168 97q-63 -97 -194 -97q-105 0 -166.5 70t-61.5 188t70 192t168 74q57 0 107 -27.5t81 -77.5q30 50 76.5 77.5t99.5 27.5z"/>
<glyph glyph-name="Scaron" horiz-adv-x="475" unicode="Š" d="M172 867l80 -96l91 96h42l-113 -140h-59l-124 140h83zM32 201h35l25 -98q55 -65 131 -65q50 0 90 33.5t40 75.5q0 54 -25 88t-117 91q-94 58 -133 101t-39 104q0 81 57.5 127.5t155.5 46.5q102 0 164 -49l9 -12q-1 -25 -5 -52t-8 -42l-3 -15h-32q-10 76 -28 92 q-31 28 -93 28q-57 0 -94 -27.5t-37 -70.5q0 -39 30.5 -74.5t109.5 -84.5q108 -67 141 -109.5t33 -107.5q0 -73 -62.5 -133t-158.5 -60q-57 0 -103.5 16.5t-64.5 33.5l-18 16v147z"/>
<glyph glyph-name="scaron" horiz-adv-x="403" unicode="š" d="M133 705l84 -119l93 119h40l-113 -163h-56l-127 163h79zM45 151h31l20 -71q42 -42 98 -42q39 0 67 20t28 56q0 11 -2 20t-8.5 18t-10 14.5t-17 15t-19 13t-25 15.5t-26.5 16q-68 42 -99.5 78t-31.5 81q0 59 45.5 93t118.5 34t124 -40l7 -9q-1 -18 -5 -40t-8 -35l-3 -12 h-29q-8 55 -21 66q-23 20 -74 20q-37 0 -62.5 -14.5t-25.5 -43.5q0 -26 24 -48t89 -62q82 -50 107.5 -82t25.5 -82q0 -57 -52 -99.5t-125 -42.5q-48 0 -83 12t-47 24l-11 12v115z"/>
<glyph glyph-name="Ydieresis" horiz-adv-x="583" unicode="Ÿ" d="M161 814q0 23 14 38.5t37 15.5q22 0 36 -15.5t14 -38.5q0 -24 -14 -39.5t-36 -15.5q-23 0 -37 15.5t-14 39.5zM358 814q0 23 14 38.5t37 15.5q22 0 36 -15.5t14 -38.5q0 -24 -14 -39.5t-36 -15.5q-23 0 -37 15.5t-14 39.5zM242 700v-36q-36 0 -73 -31l139 -275l145 275 q-37 31 -74 31v36h204v-36q-35 0 -76 -31l-173 -338v-227q38 -32 75 -32v-36h-234v36q37 0 75 32v234l-175 331q-39 31 -80 31v36h247z"/>
<glyph glyph-name="circumflex" horiz-adv-x="468" unicode="ˆ" d="M302 542l-84 119l-93 -119h-40l113 163h56l127 -163h-79z"/>
<glyph glyph-name="tilde" horiz-adv-x="469" unicode="˜" d="M85 611l-14 29q25 31 47 44t53 13q27 0 68 -15.5t63 -15.5q37 0 71 31l14 -24q-39 -63 -94 -63q-27 0 -67 17t-63 17q-38 0 -78 -33z"/>
<glyph glyph-name="pi" horiz-adv-x="592" unicode="π" d="M480 496q36 0 53.5 5.5t31.5 19.5l21 -21q-28 -56 -47 -65q-20 -9 -110 -9q-8 -83 -8 -224q0 -126 34 -126q28 0 84 34l24 -29q-51 -52 -82 -69.5t-68 -17.5q-56 0 -56 112q0 103 17 320h-110q-10 -280 -28 -343q-14 -43 -35.5 -66t-35.5 -23q-33 0 -61 12t-41 30l4 28 q63 3 87 22.5t33 73.5q4 22 14 270h-28q-8 0 -16 -1.5t-14.5 -3t-14 -6.5t-11.5 -7t-11.5 -10t-10.5 -11t-11 -13.5t-10 -13t-11 -15.5t-11 -15l-35 28q27 68 72.5 104.5t135.5 36.5q44 0 131.5 -3.5t123.5 -3.5z"/>
<glyph glyph-name="afii10023" horiz-adv-x="526" unicode="Ё" d="M121 814q0 23 14 38.5t37 15.5q22 0 36 -15.5t14 -38.5q0 -24 -14 -39.5t-36 -15.5q-23 0 -37 15.5t-14 39.5zM318 814q0 23 14 38.5t37 15.5q22 0 36 -15.5t14 -38.5q0 -24 -14 -39.5t-36 -15.5q-23 0 -37 15.5t-14 39.5zM30 700h439v-169h-40q0 28 -8 64t-23 55h-209 v-267h150q18 20 27 79h40v-208h-40q-8 60 -27 79h-150v-268q31 -15 99 -15h108q36 39 60 119h40l-29 -169h-437v36q37 0 75 32v565q-37 31 -75 31v36z"/>
<glyph glyph-name="afii10051" horiz-adv-x="679" unicode="Ђ" d="M470 650h-153v-290l79 36q33 14 92 14q85 0 128 -50.5t43 -166.5q0 -95 -46.5 -166.5t-117.5 -106.5l-17 19q52 47 74.5 97.5t22.5 137.5v12q0 78 -30.5 119t-85.5 41q-57 0 -142 -17v-261q32 -29 71 -32v-36h-230v36q37 0 75 32v582h-137q-15 -19 -23 -55t-8 -64h-40 v169h516v-148h-40q0 59 -31 98z"/>
<glyph glyph-name="afii10052" horiz-adv-x="471" unicode="Ѓ" d="M154 746l107 144l90 -46l-171 -118zM30 700h441v-169h-34q0 28 -8 64t-23 55h-217v-582q38 -32 83 -32v-36h-242v36q37 0 75 32v565q-37 31 -75 31v36z"/>
<glyph glyph-name="afii10053" horiz-adv-x="593" unicode="Є" d="M516 681l10 -12v-11q0 -28 -7 -73.5t-15 -65.5h-31q-12 88 -25 107q-8 13 -37.5 21.5t-63.5 8.5q-94 0 -149 -72.5t-58 -208.5l260 8v-71q-108 18 -260 22q5 -129 59.5 -205.5t152.5 -76.5q78 0 175 64l17 -32q-4 -3 -20.5 -17t-21.5 -18t-20.5 -15.5t-25 -15.5 t-27 -11.5t-33.5 -10.5t-38 -5.5t-46 -2.5q-122 0 -192 93.5t-70 260.5q0 165 86.5 264.5t218.5 99.5q110 0 161 -25z"/>
<glyph glyph-name="afii10054" horiz-adv-x="497" unicode="Ѕ" d="M45 201h35l25 -98q55 -65 131 -65q50 0 90 33.5t40 75.5q0 54 -25 88t-117 91q-94 58 -133 101t-39 104q0 81 57.5 127.5t155.5 46.5q102 0 164 -49l9 -12q-1 -25 -5 -52t-7 -42l-4 -15h-32q-10 76 -28 92q-31 28 -93 28q-57 0 -94 -27.5t-37 -70.5q0 -39 30.5 -74.5 t109.5 -84.5q108 -67 141 -109.5t33 -107.5q0 -73 -62.5 -133t-158.5 -60q-57 0 -103.5 16.5t-64.5 33.5l-18 16v147z"/>
<glyph glyph-name="afii10055" horiz-adv-x="354" unicode="І" d="M60 664v36h234v-36q-37 0 -75 -32v-564q38 -32 75 -32v-36h-234v36q37 0 75 32v564q-38 32 -75 32z"/>
<glyph glyph-name="afii10056" horiz-adv-x="405" unicode="Ї" d="M23 814q0 23 14 38.5t37 15.5q22 0 36 -15.5t14 -38.5q0 -24 -14 -39.5t-36 -15.5q-23 0 -37 15.5t-14 39.5zM220 814q0 23 14 38.5t37 15.5q22 0 36 -15.5t14 -38.5q0 -24 -14 -39.5t-36 -15.5q-23 0 -37 15.5t-14 39.5zM60 700h234v-36q-37 0 -75 -32v-564 q38 -32 75 -32v-36h-234v36q37 0 75 32v564q-38 32 -75 32v36z"/>
<glyph glyph-name="afii10057" horiz-adv-x="354" unicode="Ј" d="M65 664v36h234v-36q-37 0 -75 -32v-503q0 -87 -24.5 -152.5t-57.5 -100t-82 -66.5l-30 33q53 47 81.5 98t28.5 130v561q-38 32 -75 32z"/>
<glyph glyph-name="afii10058" horiz-adv-x="874" unicode="Љ" d="M609 50q69 0 104.5 44.5t35.5 115.5q0 56 -37.5 97.5t-112.5 41.5q-34 0 -79 -10v-274q31 -15 89 -15zM105 664v36h494v-36q-42 0 -79 -31v-235q62 5 88 5q30 0 76 -7q75 -13 115 -59.5t40 -115.5q0 -102 -53.5 -161.5t-165.5 -59.5h-259v36q37 0 75 32v582h-169 q0 -70 -1 -123t-3.5 -117.5t-8 -113t-14.5 -99.5t-22 -86.5t-31 -64.5t-42.5 -43.5t-54.5 -14.5q-69 0 -90 27q0 51 11 98h32q18 -24 46 -24q26 0 46 20t32.5 59.5t21 85.5t12.5 110t5.5 121t1.5 130v18q-37 31 -103 31z"/>
<glyph glyph-name="afii10059" horiz-adv-x="922" unicode="Њ" d="M657 50q69 0 104.5 44.5t35.5 115.5q0 56 -37.5 97.5t-112.5 41.5q-34 0 -79 -10v-274q31 -15 89 -15zM40 664v36h234v-36q-37 0 -75 -32v-249h285v249q-38 32 -75 32v36h238v-36q-13 0 -38.5 -15.5t-40.5 -15.5v-235q39 3 72 3q108 0 168 -33q79 -43 79 -147 q0 -102 -53.5 -161.5t-165.5 -59.5h-259v36q15 0 24.5 3.5t24 12.5t24.5 14l2 2v265h-285v-265q38 -32 75 -32v-36h-234v36q37 0 75 32v565q-37 31 -75 31z"/>
<glyph glyph-name="afii10060" horiz-adv-x="755" unicode="Ћ" d="M470 650h-153v-290l79 36q33 14 92 14q85 0 128 -50.5t43 -166.5v-125q38 -32 76 -32v-36h-231v36q39 3 71 32v118q0 78 -30.5 119t-85.5 41q-57 0 -142 -17v-261q32 -29 71 -32v-36h-230v36q37 0 75 32v582h-137q-15 -19 -23 -55t-8 -64h-40v169h516v-148h-40 q0 59 -31 98z"/>
<glyph glyph-name="afii10061" horiz-adv-x="637" unicode="Ќ" d="M241 746l107 144l90 -46l-171 -118zM40 36q49 0 87 32v565q-37 31 -75 31v36h234v-36q-38 0 -75 -31v-244h20q29 0 51 -3q58 77 178 244q-34 28 -84 34v36h240v-36l-77 -34q-23 -30 -64.5 -91.5t-60.5 -86.5q-39 -51 -83 -71q46 -4 70 -24t46 -67l65 -144 q29 -54 57.5 -83.5t67.5 -34.5v-32h-102q-45 0 -65 41q-33 64 -68.5 144.5t-60.5 129.5q-23 44 -80 44q-9 0 -27.5 -1.5t-22.5 -1.5v-284q38 -32 75 -32v-36h-246v36z"/>
<glyph glyph-name="afii10062" horiz-adv-x="616" unicode="Ў" d="M196 883h54v-71q20 -25 78 -25q27 0 46.5 5.5t25.5 10.5l7 5v75h48q34 -26 34 -53q0 -11 -4 -25l-10 -25q-58 -31 -147 -31q-40 0 -75 7.5t-50 15.5l-15 8q-8 10 -14 25q-5 12 -5 25q0 12 6.5 25t13.5 21zM251 700v-38q-39 0 -71 -32l175 -378l136 378q-35 32 -73 32v38 h204v-38q-39 0 -76 -31l-162 -452q-41 -120 -69.5 -155.5t-82.5 -35.5q-60 0 -88 26q0 2 -0.5 8t-0.5 8q0 35 12 83h32q18 -28 52 -28q29 0 46 15.5t32 64.5l-229 467q-38 30 -82 30v38h245z"/>
<glyph glyph-name="afii10145" horiz-adv-x="677" unicode="Џ" d="M40 664v36h234v-36q-47 -4 -75 -32v-582h279v582q-25 28 -75 32v36h234v-36q-41 -3 -75 -32v-574q31 -22 75 -22v-36h-267l11 -186h-78l11 186h-274v36q42 3 75 31v565q-36 30 -75 32z"/>
<glyph glyph-name="afii10017" horiz-adv-x="589" unicode="А" d="M285 580l-11 -53l-81 -241h173zM361 0v36q48 6 73 32l-52 168h-204l-53 -168q30 -27 71 -32v-36h-201v36q37 0 75 32l217 643h38l194 -643q38 -32 75 -32v-36h-233z"/>
<glyph glyph-name="afii10018" horiz-adv-x="580" unicode="Б" d="M288 50q70 0 111 45t41 115q0 56 -37.5 97.5t-112.5 41.5q-46 0 -91 -10v-274q31 -15 89 -15zM40 0v36q37 0 75 32v565q-37 31 -75 31v36h447v-169h-34q0 28 -8 64t-23 55h-223v-252q62 5 93 5q38 0 83 -7q75 -13 115 -59.5t40 -115.5q0 -100 -58.5 -160.5t-172.5 -60.5 h-259z"/>
<glyph glyph-name="afii10019" horiz-adv-x="580" unicode="В" d="M199 376l61 8q148 19 148 133q0 65 -38 103.5t-102 38.5q-21 0 -69 -11v-272zM288 46q69 0 110.5 44.5t41.5 102.5q0 67 -36.5 106.5t-113.5 39.5q-60 0 -91 -7v-267q39 -19 89 -19zM40 0v36q37 0 75 32v564q-38 32 -75 32v36h80q17 0 69 4.5t80 4.5q113 0 169 -47 t56 -129q0 -32 -17.5 -66t-45.5 -55q-25 -18 -70 -34q38 -4 69 -19q43 -20 71.5 -61t28.5 -89q0 -92 -59 -150.5t-172 -58.5h-259z"/>
<glyph glyph-name="afii10020" horiz-adv-x="496" unicode="Г" d="M40 664v36h441v-169h-34q0 28 -8 64t-23 55h-217v-582q38 -32 83 -32v-36h-242v36q37 0 75 32v565q-37 31 -75 31z"/>
<glyph glyph-name="afii10021" horiz-adv-x="684" unicode="Д" d="M166 50h276v596h-184q-2 -94 -4.5 -139t-11 -143.5t-27.5 -175.5t-49 -138zM630 700v-36q-22 0 -52 -10.5t-52 -28.5v-566l12 -9h101v-236h-40q0 52 -13.5 104t-34.5 82h-452q-21 -30 -34.5 -82.5t-13.5 -103.5h-36v236h72q111 130 111 575q-22 18 -53.5 28.5t-54.5 10.5 v36h540z"/>
<glyph glyph-name="afii10022" horiz-adv-x="551" unicode="Е" d="M40 664v36h439v-169h-40q0 28 -8 64t-23 55h-209v-267h150q18 20 27 79h40v-208h-40q-8 60 -27 79h-150v-268q31 -15 99 -15h108q36 39 60 119h40l-29 -169h-437v36q37 0 75 32v565q-37 31 -75 31z"/>
<glyph glyph-name="afii10024" horiz-adv-x="926" unicode="Ж" d="M341 664v36h244v-36q-45 0 -83 -32v-245h15q19 0 49 -3q17 24 169 246q-34 28 -83 34v36h243v-36l-81 -34q-22 -30 -64.5 -91.5t-60.5 -86.5q-42 -59 -74 -73q49 -4 68.5 -21.5t42.5 -67.5l70 -144q29 -55 53.5 -82.5t61.5 -35.5v-32h-92q-45 0 -65 41 q-31 62 -71.5 142.5t-66.5 131.5q-23 44 -83 44q-20 0 -31 -1v-286q38 -32 83 -32v-36h-244v36q45 0 83 32v286q-11 1 -31 1q-60 0 -83 -44q-26 -51 -66 -131.5t-72 -142.5q-20 -41 -65 -41h-92v32q37 8 61.5 35.5t53.5 82.5q55 112 70 144q23 50 42.5 67.5t68.5 21.5 q-32 14 -74 73q-18 25 -60.5 86.5t-64.5 91.5l-81 34v36h243v-36q-49 -6 -83 -34q152 -222 169 -246q30 3 49 3h15v246q-37 31 -83 31z"/>
<glyph glyph-name="afii10025" horiz-adv-x="539" unicode="З" d="M239 -12q-99 0 -179 28l-10 12q0 81 12 141h30q15 -63 37 -90q29 -35 89 -35q183 0 183 160q0 70 -30 104t-78 34q-30 0 -65.5 -4t-55.5 -8l-21 -5v64h56q162 0 162 148q0 49 -34.5 84t-87.5 35q-70 0 -105 -23q-34 -53 -34 -122h-44v184h30q17 1 68.5 6t88.5 5 q105 0 154 -50.5t49 -124.5q0 -83 -44 -121q-6 -5 -19 -11.5t-28.5 -12.5t-20.5 -9q7 -3 32.5 -9t33.5 -10q81 -46 81 -149q0 -97 -58 -159t-192 -62z"/>
<glyph glyph-name="afii10026" horiz-adv-x="697" unicode="И" d="M40 664v36h234v-36q-37 0 -75 -32v-455l-11 -64l320 587h149v-36q-38 0 -75 -31v-565q38 -32 75 -32v-36h-242v36q45 0 83 32v443l11 74l-320 -585h-149v36q37 0 75 32v565q-37 31 -75 31z"/>
<glyph glyph-name="afii10027" horiz-adv-x="697" unicode="Й" d="M226 883h54v-71q20 -25 78 -25q27 0 46.5 5.5t25.5 10.5l7 5v75h48q34 -26 34 -53q0 -11 -4 -25l-10 -25q-58 -31 -147 -31q-40 0 -75 7.5t-50 15.5l-15 8q-8 10 -14 25q-5 12 -5 25q0 12 6.5 25t13.5 21zM40 700h234v-36q-37 0 -75 -32v-455l-11 -64l320 587h149v-36 q-38 0 -75 -31v-565q38 -32 75 -32v-36h-242v36q45 0 83 32v443l11 74l-320 -585h-149v36q37 0 75 32v565q-37 31 -75 31v36z"/>
<glyph glyph-name="afii10028" horiz-adv-x="637" unicode="К" d="M40 0v36q49 0 87 32v565q-37 31 -75 31v36h234v-36q-38 0 -75 -31v-244h20q29 0 51 -3q58 77 178 244q-34 28 -84 34v36h240v-36l-77 -34q-23 -30 -64.5 -91.5t-60.5 -86.5q-39 -51 -83 -71q46 -4 70 -24t46 -67l65 -144q29 -54 57.5 -83.5t67.5 -34.5v-32h-102 q-45 0 -65 41q-33 64 -68.5 144.5t-60.5 129.5q-23 44 -80 44q-9 0 -27.5 -1.5t-22.5 -1.5v-284q38 -32 75 -32v-36h-246z"/>
<glyph glyph-name="afii10029" horiz-adv-x="635" unicode="Л" d="M105 664v36h490v-36q-38 0 -75 -31v-565q38 -32 75 -32v-36h-234v36q37 0 75 32v582h-169q0 -70 -1 -123t-3.5 -117.5t-8 -113t-14.5 -99.5t-22 -86.5t-31 -64.5t-42.5 -43.5t-54.5 -14.5q-69 0 -90 27q0 51 11 98h32q18 -24 46 -24q26 0 46 20t32.5 59.5t21 85.5 t12.5 110t5.5 121t1.5 130v18q-37 31 -103 31z"/>
<glyph glyph-name="afii10030" horiz-adv-x="829" unicode="М" d="M229 700v-18l187 -525l199 525v18h165v-36q-47 0 -85 -32l24 -565q39 -31 75 -31v-36h-230v36q37 0 75 32l-24 397l11 93l-207 -537l-9 -29h-23l-9 29l-210 574l12 -89l-18 -438q38 -32 75 -32v-36h-202v36q37 0 75 32l21 565q-38 32 -84 32v35h182z"/>
<glyph glyph-name="afii10031" horiz-adv-x="697" unicode="Н" d="M40 664v36h234v-36q-37 0 -75 -32v-249h299v249q-38 32 -75 32v36h234v-36q-38 0 -75 -31v-565q38 -32 75 -32v-36h-234v36q37 0 75 32v265h-299v-265q38 -32 75 -32v-36h-234v36q37 0 75 32v565q-37 31 -75 31z"/>
<glyph glyph-name="afii10032" horiz-adv-x="706" unicode="О" d="M362 38q105 0 154.5 83t49.5 220q0 146 -59 233t-163 87q-98 0 -151 -84t-53 -214q0 -145 60 -235t162 -90zM346 -12q-142 0 -219 95t-77 261t88.5 266.5t222.5 100.5q128 0 211.5 -95t83.5 -254q0 -179 -79 -276.5t-231 -97.5z"/>
<glyph glyph-name="afii10033" horiz-adv-x="677" unicode="П" d="M40 0v36q37 0 75 32v565q-37 31 -75 31v36h597v-36q-38 0 -75 -31v-564q38 -32 75 -32v-37h-234v37q37 0 75 32v581h-279v-582q38 -32 75 -32v-36h-234z"/>
<glyph glyph-name="afii10034" horiz-adv-x="543" unicode="Р" d="M199 352l61 3q78 4 118 44t40 113q0 62 -34 102.5t-106 40.5q-47 0 -79 -8v-295zM40 0v36q37 0 75 32v565q-37 31 -75 31v36h110l129 5q229 0 229 -199q0 -91 -57 -138t-150 -57l-102 -7v-236q38 -32 75 -32v-36h-234z"/>
<glyph glyph-name="afii10035" horiz-adv-x="579" unicode="С" d="M516 681l10 -12v-11q0 -28 -7 -73.5t-15 -65.5h-31q-12 88 -25 107q-8 13 -37.5 21.5t-63.5 8.5q-96 0 -151.5 -76.5t-55.5 -218.5q0 -140 54.5 -224.5t157.5 -84.5q78 0 175 64l17 -32l-71 -57q-47 -39 -161 -39q-122 0 -192 93.5t-70 260.5q0 165 86.5 264.5 t218.5 99.5q110 0 161 -25z"/>
<glyph glyph-name="afii10036" horiz-adv-x="566" unicode="Т" d="M166 0v36q37 0 75 32v582h-145q-15 -19 -23 -55t-8 -64h-40v169h516v-169h-40q0 28 -8 64t-23 55h-145v-582q38 -32 75 -32v-36h-234z"/>
<glyph glyph-name="afii10037" horiz-adv-x="616" unicode="У" d="M250 700v-38q-39 0 -71 -32l175 -378l136 378q-35 32 -73 32v38h204v-38q-39 0 -76 -31l-180 -502q-30 -85 -58 -113t-76 -28q-60 0 -88 26q0 2 -0.5 8t-0.5 8q0 35 12 83h32q18 -28 52 -28q30 0 46.5 15.5t31.5 64.5l-229 467q-38 30 -82 30v38h245z"/>
<glyph glyph-name="afii10038" horiz-adv-x="781" unicode="Ф" d="M131 401q0 -219 218 -255v478q-93 -12 -155.5 -72t-62.5 -151zM650 379q0 109 -58 171.5t-159 74.5v-483q102 8 159.5 70.5t57.5 166.5zM508 36v-36h-234v36q35 0 75 28v34q-136 12 -220 87.5t-84 196.5q0 63 25 115t68.5 86.5t96.5 56t114 29.5v27q-40 28 -75 28v36h234 v-36q-33 0 -75 -28v-24q127 -8 215 -83t88 -189q0 -136 -80 -214.5t-223 -88.5v-33q40 -28 75 -28z"/>
<glyph glyph-name="afii10039" horiz-adv-x="656" unicode="Х" d="M409 664v36h212v-36q-41 0 -79 -32l-174 -257l189 -307q38 -32 84 -32v-36h-256v36q34 0 72 32l-142 232l-159 -232q38 -32 71 -32v-36h-212v36q41 0 79 32l192 278l-172 287q-37 31 -84 31v36h257v-36q-35 0 -72 -31l125 -213l140 212q-38 32 -71 32z"/>
<glyph glyph-name="afii10040" horiz-adv-x="697" unicode="Ц" d="M40 664v36h234v-36q-37 0 -75 -32v-582h289v582q-38 32 -75 32v36h234v-36q-37 0 -75 -32v-574l12 -8h68v-236h-40q0 52 -13.5 104t-34.5 82h-524v36q38 0 75 31v565q-38 32 -75 32z"/>
<glyph glyph-name="afii10041" horiz-adv-x="612" unicode="Ч" d="M226 700v-36q-39 -3 -71 -32v-118q0 -78 30.5 -119t85.5 -41q57 0 142 17v261q-32 29 -71 32v36h230v-36q-37 0 -75 -32v-564q38 -32 75 -32v-36h-242v36q45 0 83 32v272l-79 -36q-33 -14 -92 -14q-85 0 -128 50.5t-43 166.5v125q-38 32 -76 32v36h231z"/>
<glyph glyph-name="afii10042" horiz-adv-x="897" unicode="Ш" d="M40 664v36h223v-36q-39 -3 -69 -32v-582h215v582q-30 29 -69 32v36h217v-36q-39 -3 -69 -32v-582h215v582q-30 29 -69 32v36h223v-36q-37 0 -75 -32v-565q37 -31 75 -31v-36h-817v36q38 0 75 31v565q-38 32 -75 32z"/>
<glyph glyph-name="afii10043" horiz-adv-x="907" unicode="Щ" d="M40 664v36h223v-36q-39 -3 -69 -32v-582h215v582q-30 29 -69 32v36h217v-36q-39 -3 -69 -32v-582h215v582q-30 29 -69 32v36h223v-36q-37 0 -75 -32v-574l12 -8h68v-236h-40q0 52 -13.5 104t-34.5 82h-734v36q38 0 75 31v565q-38 32 -75 32z"/>
<glyph glyph-name="afii10044" horiz-adv-x="652" unicode="Ъ" d="M385 50q69 0 105.5 44.5t36.5 115.5q0 56 -37.5 97.5t-112.5 41.5q-36 0 -81 -10v-274q31 -15 89 -15zM137 0v36q37 0 75 32v582h-98q-48 -66 -48 -166h-36v216h343v-36q-40 0 -77 -31v-235q62 5 88 5q32 0 78 -7q75 -13 115 -59.5t40 -115.5q0 -102 -54 -161.5 t-167 -59.5h-259z"/>
<glyph glyph-name="afii10045" horiz-adv-x="784" unicode="Ы" d="M510 664v36h234v-36q-37 0 -75 -32v-564q38 -32 75 -32v-36h-234v36q37 0 75 32v564q-38 32 -75 32zM288 50q68 0 99.5 43.5t31.5 116.5q0 57 -35 98t-109 41q-31 0 -76 -10v-274q31 -15 89 -15zM40 0v36q37 0 75 32v565q-37 31 -75 31v36h238v-36q-42 0 -79 -31v-235 q62 5 86 5q29 0 75 -7q74 -13 111.5 -59t37.5 -116q0 -221 -210 -221h-259z"/>
<glyph glyph-name="afii10046" horiz-adv-x="553" unicode="Ь" d="M288 50q69 0 104.5 44.5t35.5 115.5q0 56 -37.5 97.5t-112.5 41.5q-34 0 -79 -10v-274q31 -15 89 -15zM40 0v36q37 0 75 32v565q-37 31 -75 31v36h238v-36q-42 0 -79 -31v-235q62 5 88 5q31 0 76 -7q75 -13 115 -59.5t40 -115.5q0 -102 -53.5 -161.5t-165.5 -59.5h-259z "/>
<glyph glyph-name="afii10047" horiz-adv-x="574" unicode="Э" d="M165 383l268 -8q-6 111 -44.5 181t-105.5 91q-24 8 -58 8q-69 0 -94 -18q-37 -51 -42 -125h-35v175h26q17 1 75 9.5t102 8.5q124 0 195.5 -91t71.5 -262q0 -183 -73.5 -273.5t-210.5 -90.5q-109 0 -195 52q0 92 12 152h25q1 -5 3.5 -18.5t3.5 -19t3 -17t3.5 -17 t4.5 -14.5t5.5 -14t6 -10.5t7.5 -9.5q48 -34 116 -34q90 0 144.5 71.5t54.5 224.5q-149 -2 -269 -22v71z"/>
<glyph glyph-name="afii10048" horiz-adv-x="919" unicode="Ю" d="M596 38q183 0 183 303q0 149 -51 234.5t-150 85.5q-90 0 -134.5 -83t-44.5 -215q0 -146 52.5 -235.5t144.5 -89.5zM40 664v36h234v-36q-37 0 -75 -32v-249h111q10 151 88.5 239.5t196.5 88.5q123 0 198.5 -94.5t75.5 -254.5q0 -180 -72.5 -277t-216.5 -97 q-131 0 -200 91.5t-71 253.5h-110v-265q38 -32 75 -32v-36h-234v36q37 0 75 32v564q-38 32 -75 32z"/>
<glyph glyph-name="afii10049" horiz-adv-x="595" unicode="Я" d="M177 502q0 -61 37.5 -98.5t120.5 -37.5h61v281h-79q-64 0 -102 -38.5t-38 -106.5zM555 36v-36h-238v36q41 0 79 32v253l-88 -5q-63 -130 -134 -264q-19 -36 -42.5 -50.5t-69.5 -14.5h-52v37q2 1 11.5 4t14 5.5t14 7t16 11l15.5 15.5t17.5 22t16.5 29l84 168l40 35 q-62 6 -107 55.5t-45 126.5q0 87 59.5 141.5t169.5 54.5q22 0 65 0.5t64 0.5h110v-36q-38 0 -75 -31v-565q38 -32 75 -32z"/>
<glyph glyph-name="afii10065" horiz-adv-x="447" unicode="а" d="M112 134q0 -39 22.5 -60.5t61.5 -21.5q48 0 96 34v138h-17q-92 0 -148 -31q-15 -19 -15 -59zM63 469l10 11q67 31 142 31q82 0 119 -42t37 -139q0 -29 -5 -93t-5 -95q0 -46 8 -79q18 -11 47 -11h13v-30l-76 -28q-58 0 -58 62h-3l-59 -48q-30 -16 -72 -16q-59 0 -95 36.5 t-36 95.5t35 106q96 30 189 30q25 0 38 -1q0 1 1 31t1 45q0 126 -98 126q-45 0 -64 -23q-13 -16 -19 -75h-30q-20 51 -20 106z"/>
<glyph glyph-name="afii10066" horiz-adv-x="508" unicode="б" d="M261 38q129 0 129 206q0 85 -34.5 145.5t-97.5 60.5q-64 0 -101 -55.5t-37 -134.5q0 -95 38.5 -158.5t102.5 -63.5zM250 -12q-100 0 -155 71t-55 198q1 206 24 289t96 124q19 11 45.5 19t45.5 11.5t64.5 11t69.5 11.5l15 27h33q-14 -71 -28 -104q-145 -24 -164 -28 q-85 -22 -118 -77q-31 -51 -38 -156q2 0 9 10.5t15 23.5t12 17q60 64 148 64q86 0 145 -68.5t59 -172.5q0 -124 -57 -197.5t-166 -73.5z"/>
<glyph glyph-name="afii10067" horiz-adv-x="460" unicode="в" d="M169 268l44 5q107 14 107 96q0 90 -101 90q-27 0 -50 -5v-186zM233 41q51 0 80.5 28.5t29.5 69.5q0 101 -108 101q-38 0 -66 -4v-180q33 -15 64 -15zM24 0v34q33 0 70 30v372q-37 30 -70 30v34h84q13 0 58.5 3.5t72.5 3.5q82 0 123 -34t41 -93q0 -29 -12.5 -53t-30.5 -34 q-35 -19 -50 -24q39 -11 50 -15q68 -26 68 -104q0 -66 -42 -108t-123 -42h-239z"/>
<glyph glyph-name="afii10068" horiz-adv-x="386" unicode="г" d="M379 330h-36q0 76 -30 120h-144v-386q15 -13 38 -21.5t37 -8.5v-34h-220v34q33 0 70 30v372q-37 30 -70 30v34h355v-170z"/>
<glyph glyph-name="afii10069" horiz-adv-x="513" unicode="д" d="M132 50h204v400h-96q-30 -3 -42 -22q0 -1 -2 -41.5t-3.5 -61t-6.5 -64.5t-11 -74.5t-17.5 -69t-25.5 -67.5zM481 500v-34q-34 0 -70 -30v-380l8 -6h68v-190h-36q0 35 -12.5 76t-28.5 64h-333q-16 -23 -28.5 -64t-12.5 -76h-36v190h62q79 93 79 386q-37 30 -74 30v34h414z "/>
<glyph glyph-name="afii10070" horiz-adv-x="468" unicode="е" d="M244 462q-49 0 -83 -39.5t-39 -101.5l216 21q0 67 -29.5 93.5t-64.5 26.5zM253 512q77 0 121 -46t44 -124q0 -16 -1 -25l-13 -20l-286 -19q-1 -9 -1 -28q0 -87 46.5 -142.5t120.5 -55.5q33 0 59.5 10.5t69.5 35.5l15 -31q-80 -55 -108 -66q-34 -13 -79 -13 q-91 0 -148.5 69t-57.5 189q0 117 63.5 191.5t154.5 74.5z"/>
<glyph glyph-name="afii10072" horiz-adv-x="701" unicode="ж" d="M386 436v-154q41 0 60 -2q18 22 62 83t60 81q-26 21 -54 24v32h175v-34l-59 -22l-96 -122q-28 -36 -50 -46q27 -5 41.5 -19.5t33.5 -50.5l53 -103q20 -37 40 -56t49 -23v-28h-84q-33 0 -47 29q-47 88 -101 196q-17 32 -58 32q-16 0 -25 -1v-188q27 -25 67 -30v-34h-205 v34q40 5 67 30v188q-9 1 -26 1q-41 0 -57 -32q-54 -108 -101 -196q-15 -29 -47 -29h-84v28q52 6 89 79l53 103q18 35 33.5 50t41.5 20q-22 10 -50 46l-96 122l-59 22v34h175v-32q-27 -3 -53 -24q16 -21 59.5 -81.5t61.5 -82.5q19 2 60 2v154q-27 25 -67 30v34h205v-34 q-40 -5 -67 -30z"/>
<glyph glyph-name="afii10073" horiz-adv-x="407" unicode="з" d="M173 -12q-80 0 -138 20l-7 9q0 59 9 102h27q20 -66 60 -82q15 -6 34 -6q62 0 97 30.5t35 84.5q0 93 -89 93q-40 0 -81 -6v47h30q59 0 88 25.5t29 63.5q0 35 -16.5 57.5t-41.5 30.5q-17 5 -30 5q-73 0 -94 -38q-13 -22 -13 -68h-36v143h26q16 0 57 4t71 4q76 0 118 -33 t42 -94q0 -24 -7 -42.5t-21.5 -31t-28 -20t-36.5 -17.5q60 -17 89 -44t29 -75q0 -69 -49 -115.5t-153 -46.5z"/>
<glyph glyph-name="afii10074" horiz-adv-x="550" unicode="и" d="M24 466v34h210v-34q-38 -5 -65 -30v-272l-19 -80h3l236 416h137v-34q-33 0 -70 -30v-372q37 -30 70 -30v-34h-210v34q38 5 65 30v268l19 82h-3l-236 -414h-137v34q33 0 70 30v372q-37 30 -70 30z"/>
<glyph glyph-name="afii10075" horiz-adv-x="550" unicode="й" d="M170 743h40v-93q6 -7 27 -14.5t43 -7.5q50 0 70 22v93h35q34 -29 34 -66q0 -12 -3.5 -26t-7.5 -22l-3 -8q-35 -33 -125 -33q-40 0 -73 10.5t-45 22.5q-19 30 -19 56q0 16 6.5 32.5t13.5 24.5zM24 500h210v-34q-38 -5 -65 -30v-272l-19 -80h3l236 416h137v-34 q-33 0 -70 -30v-372q37 -30 70 -30v-34h-210v34q38 5 65 30v268l19 82h-3l-236 -414h-137v34q33 0 70 30v372q-37 30 -70 30v34z"/>
<glyph glyph-name="afii10076" horiz-adv-x="496" unicode="к" d="M234 34v-34h-210v34q33 0 70 30v372q-37 30 -70 30v34h210v-34q-38 -5 -65 -30v-154q4 0 11 0.5t10 0.5q14 0 37 -3q43 53 129 164q-26 20 -57 24v32h175v-34l-60 -22l-99 -122q-25 -32 -56 -46q39 -5 56.5 -18.5t35.5 -48.5l56 -106q20 -37 40 -56t49 -23v-28h-84 q-32 0 -47 29q-76 143 -108 197q-18 30 -65 30q-15 0 -23 -1v-187q27 -25 65 -30z"/>
<glyph glyph-name="afii10077" horiz-adv-x="517" unicode="л" d="M493 34v-34h-210v34q38 5 65 30v391h-86q-36 0 -49 -22q-3 -239 -46.5 -342t-111.5 -103q-41 0 -62 23v7q0 37 7 61h28q14 -14 37 -14q20 0 33.5 13.5t24.5 54.5q33 125 33 303q-37 30 -72 30v34h409v-34q-33 0 -70 -30v-372q37 -30 70 -30z"/>
<glyph glyph-name="afii10078" horiz-adv-x="647" unicode="м" d="M20 0v34q33 0 71 30l11 372q-37 30 -70 30v34h156v-15l134 -363l135 363v15h153v-34q-33 0 -70 -30l16 -372q38 -30 71 -30v-34h-210v34q29 0 64 29l-5 286l6 79h-6l-161 -434h-17l-14 39l-138 392h-4q0 -27 4 -77l-9 -286q36 -28 63 -28v-34h-180z"/>
<glyph glyph-name="afii10079" horiz-adv-x="563" unicode="н" d="M24 0v34q33 0 70 30v372q-37 30 -70 30v34h210v-34q-38 -5 -65 -30v-142h225v142q-27 25 -65 30v34h210v-34q-33 0 -70 -30v-372q37 -30 70 -30v-34h-210v34q38 5 65 30v180h-225v-180q27 -25 65 -30v-34h-210z"/>
<glyph glyph-name="afii10080" d="M274 38q144 0 144 206q0 95 -43 156.5t-113 61.5q-72 0 -108 -54.5t-36 -147.5q0 -94 44 -158t112 -64zM263 -12q-105 0 -166.5 70t-61.5 188q0 119 70 192.5t168 73.5q94 0 161 -69.5t67 -183.5q0 -127 -63 -199t-175 -72z" unicode="о"/>
<glyph glyph-name="afii10081" horiz-adv-x="558" unicode="п" d="M30 0v34q33 0 70 30v372q-37 30 -70 30v34h498v-34q-33 0 -70 -30v-372q37 -30 70 -30v-34h-210v34q38 5 65 30v386h-208v-386q27 -25 65 -30v-34h-210z"/>
<glyph glyph-name="afii10082" horiz-adv-x="531" unicode="р" d="M264 452q-47 0 -98 -25v-363q35 -26 82 -26q75 0 120.5 54t45.5 152q0 96 -39.5 152t-110.5 56zM21 -200v34q33 0 70 30v568q-23 22 -71 22v31l138 33l8 -6v-56l71 46q16 10 68 10q85 0 138 -64t53 -190q0 -111 -70.5 -190.5t-174.5 -79.5q-42 0 -85 16v-140 q35 -30 71 -30v-34h-216z"/>
<glyph glyph-name="afii10083" horiz-adv-x="436" unicode="с" d="M381 494l-9 -123h-29q-9 60 -17 72q-13 19 -55 19q-70 0 -112 -50.5t-42 -151.5q0 -91 50.5 -149.5t120.5 -58.5q10 0 20.5 2t18 4.5t19 8.5t17 9t18.5 11.5t18 11.5l17 -32l-59 -47q-40 -32 -100 -32q-97 0 -159.5 69.5t-62.5 188.5q0 118 74 192t173 74q60 0 99 -18z "/>
<glyph glyph-name="afii10084" horiz-adv-x="439" unicode="т" d="M41 330h-36v170h429v-170h-36q0 76 -30 120h-111v-386q15 -13 38 -21.5t37 -8.5v-34h-224v34q37 0 74 30v386h-111q-30 -44 -30 -120z"/>
<glyph glyph-name="afii10085" horiz-adv-x="489" unicode="у" d="M312 466v34h182v-34q-15 0 -36 -8t-33 -22l-135 -390l-13 -39q-47 -142 -63.5 -171.5t-35.5 -35.5h-91v46q51 9 79 31q11 9 21 26t15.5 31.5t13 38.5t11.5 34l-192 429q-35 30 -70 30v34h209v-34q-35 -5 -58 -30l130 -303l14 -40l110 343q-21 24 -58 30z"/>
<glyph glyph-name="afii10086" horiz-adv-x="677" unicode="ф" d="M420 38q76 0 107.5 53t31.5 153q0 96 -41 157t-110 61q-12 0 -32 -4v-412q21 -8 44 -8zM269 38q22 0 32 2v414q-22 8 -44 8q-139 0 -139 -202q0 -95 41.5 -158.5t109.5 -63.5zM258 -12q-104 0 -163.5 69.5t-59.5 188.5q0 120 67.5 193t165.5 73q11 0 33 -2v154 q-23 22 -71 22v31l138 33l8 -6v-236q28 4 43 4q94 0 158.5 -69.5t64.5 -183.5q0 -128 -61 -199.5t-172 -71.5q-13 0 -33 2v-126q15 -13 38 -21.5t37 -8.5v-34h-224v34q37 0 74 30v127q-21 -3 -43 -3z"/>
<glyph glyph-name="afii10087" horiz-adv-x="501" unicode="х" d="M296 466v34h183v-34q-14 0 -37 -8.5t-38 -21.5l-114 -173l130 -199q10 -15 33.5 -22.5t41.5 -7.5v-34h-213v34q29 4 53 30l-95 154l-104 -154q22 -25 53 -30v-34h-183v34q14 0 37 8.5t38 21.5l133 188l-126 184q-11 15 -34 22.5t-41 7.5v34h213v-34q-29 -4 -53 -30 l86 -141l90 141q-22 25 -53 30z"/>
<glyph glyph-name="afii10088" horiz-adv-x="568" unicode="ц" d="M24 466v34h210v-34q-38 -5 -65 -30v-386h208v386q-27 25 -65 30v34h210v-34q-33 0 -70 -30v-386h90v-190h-36q0 35 -12.5 76t-28.5 64h-441v34q33 0 70 30v372q-37 30 -70 30z"/>
<glyph glyph-name="afii10089" horiz-adv-x="511" unicode="ч" d="M-2 466v34h210v-34q-38 -5 -65 -30v-69q0 -109 83 -109q59 0 116 12v166q-27 25 -65 30v34h210v-34q-33 0 -70 -30v-372q37 -30 70 -30v-34h-222v34q14 0 38 8.5t39 21.5v166l-70 -22q-35 -10 -67 -10q-69 0 -103 39.5t-34 124.5v74q-37 30 -70 30z"/>
<glyph glyph-name="afii10090" horiz-adv-x="793" unicode="ш" d="M24 466v34h210v-34q-38 -5 -65 -30v-386h192v386q-27 25 -65 30v34h201v-34q-38 -5 -65 -30v-386h192v386q-27 25 -65 30v34h210v-34q-33 0 -70 -30v-372q37 -30 70 -30v-34h-745v34q33 0 70 30v372q-37 30 -70 30z"/>
<glyph glyph-name="afii10091" horiz-adv-x="817" unicode="щ" d="M24 466v34h210v-34q-38 -5 -65 -30v-386h192v386q-27 25 -65 30v34h201v-34q-38 -5 -65 -30v-386h192v386q-27 25 -65 30v34h210v-34q-33 0 -70 -30v-386h90v-170h-36q0 62 -40 120h-689v34q33 0 70 30v372q-37 30 -70 30z"/>
<glyph glyph-name="afii10092" horiz-adv-x="520" unicode="ъ" d="M317 256q-31 0 -66 -5v-195q33 -15 64 -15q51 0 80.5 30t29.5 78t-26.5 77.5t-81.5 29.5zM327 500v-34q-39 0 -76 -30v-145l98 2q24 0 48.5 -5.5t51.5 -18.5t44 -41.5t17 -67.5q0 -67 -42.5 -113.5t-122.5 -46.5h-239v34q33 0 70 30v386h-100q-35 -51 -35 -120h-36v170 h322z"/>
<glyph glyph-name="afii10093" horiz-adv-x="678" unicode="ы" d="M438 0v34q33 0 70 30v372q-37 30 -70 30v34h216v-34q-36 0 -71 -30v-372q35 -30 71 -30v-34h-216zM234 41q51 0 80.5 30t29.5 78t-26.5 77.5t-81.5 29.5q-41 0 -66 -5v-195q33 -15 64 -15zM25 0v34q33 0 70 30v372q-35 30 -71 30v34h222v-34q-39 0 -76 -30v-145l98 2 q24 0 48.5 -5.5t51.5 -18.5t44 -41.5t17 -67.5q0 -67 -42.5 -113.5t-122.5 -46.5h-239z"/>
<glyph glyph-name="afii10094" horiz-adv-x="439" unicode="ь" d="M234 41q51 0 80.5 30t29.5 78t-26.5 77.5t-81.5 29.5q-41 0 -66 -5v-195q33 -15 64 -15zM25 0v34q33 0 70 30v372q-35 30 -71 30v34h222v-34q-39 0 -76 -30v-145l98 2q24 0 48.5 -5.5t51.5 -18.5t44 -41.5t17 -67.5q0 -67 -42.5 -113.5t-122.5 -46.5h-239z"/>
<glyph glyph-name="afii10095" horiz-adv-x="426" unicode="э" d="M125 286l182 -6q-7 81 -43 131.5t-95 50.5q-48 0 -66 -13q-27 -35 -30 -82h-36v132h26q13 0 55.5 6.5t73.5 6.5q87 0 143 -69.5t56 -188.5q0 -121 -59.5 -193.5t-151.5 -72.5q-84 0 -145 38q0 63 9 106h26q10 -54 27 -70q34 -24 79 -24q57 0 95 51.5t38 152.5 q-100 -2 -184 -16v60z"/>
<glyph glyph-name="afii10096" horiz-adv-x="715" unicode="ю" d="M478 38q67 0 95.5 53.5t28.5 152.5q0 97 -37 157.5t-102 60.5q-124 0 -124 -202q0 -98 35.5 -160t103.5 -62zM24 0v34q33 0 70 30v372q-37 30 -70 30v34h210v-34q-38 -5 -65 -30v-142h97q13 101 70 159.5t138 58.5q87 0 146.5 -69.5t59.5 -183.5q0 -129 -55 -200 t-158 -71q-95 0 -149.5 72.5t-54.5 183.5h-94v-180q27 -25 65 -30v-34h-210z"/>
<glyph glyph-name="afii10097" horiz-adv-x="468" unicode="я" d="M146 359q0 -41 25 -69.5t82 -28.5h54v194h-60q-47 0 -74 -25t-27 -71zM444 34v-34h-196v34q31 4 59 30v152h-82l-87 -164q-32 -61 -90 -61h-43v28q27 13 46 29.5t36 49.5l54 105l29 25q-49 17 -78 53.5t-29 84.5q0 60 40.5 97t121.5 37h219v-34q-25 0 -62 -30v-372 q37 -30 62 -30z"/>
<glyph glyph-name="afii10071" horiz-adv-x="453" unicode="ё" d="M244 462q-49 0 -83 -39.5t-39 -101.5l216 21q0 67 -29.5 93.5t-64.5 26.5zM253 512q77 0 121 -46t44 -124q0 -16 -1 -25l-13 -20l-286 -19q-1 -9 -1 -28q0 -87 46.5 -142.5t120.5 -55.5q33 0 59.5 10.5t69.5 35.5l15 -31q-80 -55 -108 -66q-34 -13 -79 -13 q-91 0 -148.5 69t-57.5 189q0 117 63.5 191.5t154.5 74.5zM280 665q0 23 14 38.5t37 15.5q22 0 36 -15.5t14 -38.5q0 -24 -14 -39.5t-36 -15.5q-23 0 -37 15.5t-14 39.5zM83 665q0 23 14 38.5t37 15.5q22 0 36 -15.5t14 -38.5q0 -24 -14 -39.5t-36 -15.5q-23 0 -37 15.5 t-14 39.5z"/>
<glyph glyph-name="afii10099" horiz-adv-x="511" unicode="ђ" d="M24 450v50h85v164q-23 22 -71 22v31l138 33l8 -6v-244h259l-9 -50h-250v-119l71 46q13 10 68 10q90 0 129 -45t39 -159v-115q0 -92 -39.5 -138t-104.5 -46q-17 0 -33 3l8 129h16l45 -82q21 5 27 30.5t6 78.5v21v114q0 78 -29 113.5t-105 35.5q-47 0 -98 -25v-238 q35 -30 64 -30v-34h-209v34q33 0 70 30v386h-85z"/>
<glyph glyph-name="afii10100" horiz-adv-x="386" unicode="ѓ" d="M181 552l59 153h94l-123 -170zM343 330q0 76 -30 120h-144v-386q15 -13 38 -21.5t37 -8.5v-34h-220v34q33 0 70 30v372q-37 30 -70 30v34h355v-170h-36z"/>
<glyph glyph-name="afii10101" horiz-adv-x="436" unicode="є" d="M381 494l-9 -123h-29q-9 60 -17 72q-13 19 -55 19q-66 0 -108 -45.5t-46 -136.5l186 6v-60q-90 14 -186 16q5 -84 54.5 -137t116.5 -53q10 0 20.5 2t18 4.5t19 8.5t17 9t18.5 11.5t18 11.5l17 -32l-59 -47q-40 -32 -100 -32q-97 0 -159.5 69.5t-62.5 188.5q0 118 74 192 t173 74q57 0 99 -18z"/>
<glyph glyph-name="afii10102" horiz-adv-x="403" unicode="ѕ" d="M45 151h31l20 -71q42 -42 98 -42q39 0 67 20t28 56q0 11 -2 20t-8.5 18t-10 14.5t-17 15t-19 13t-25 15.5t-26.5 16q-68 42 -99.5 78t-31.5 81q0 59 45.5 93t118.5 34t124 -40l7 -9q-1 -18 -5 -40t-8 -35l-3 -12h-29q-8 55 -21 66q-23 20 -74 20q-37 0 -62.5 -14.5 t-25.5 -43.5q0 -26 24 -48t89 -62q82 -50 107.5 -82t25.5 -82q0 -57 -52 -99.5t-125 -42.5q-48 0 -83 12t-47 24l-11 12v115z"/>
<glyph glyph-name="afii10103" horiz-adv-x="261" unicode="і" d="M81 685q0 23 14 38.5t37 15.5q22 0 36 -15.5t14 -38.5q0 -24 -14 -39.5t-36 -15.5q-23 0 -37 15.5t-14 39.5zM95 426q-23 22 -71 22v31l138 33l8 -6v-442q35 -30 71 -30v-34h-216v34q33 0 70 30v362z"/>
<glyph glyph-name="afii10104" horiz-adv-x="318" unicode="ї" d="M30 685q0 23 14 38.5t37 15.5q22 0 36 -15.5t14 -38.5q0 -24 -14 -39.5t-36 -15.5q-23 0 -37 15.5t-14 39.5zM187 685q0 23 14 38.5t37 15.5q22 0 36 -15.5t14 -38.5q0 -24 -14 -39.5t-36 -15.5q-23 0 -37 15.5t-14 39.5zM125 426q-23 22 -71 22v31l138 33l8 -6v-442 q35 -30 71 -30v-34h-216v34q33 0 70 30v362z"/>
<glyph glyph-name="afii10105" horiz-adv-x="252" unicode="ј" d="M76 685q0 23 14 38.5t37 15.5q22 0 36 -15.5t14 -38.5q0 -24 -14 -39.5t-36 -15.5q-23 0 -37 15.5t-14 39.5zM172 506v-470q0 -154 -155 -236l-14 20q51 39 72.5 88.5t21.5 127.5v390q-23 22 -71 22v31l138 33z"/>
<glyph glyph-name="afii10106" horiz-adv-x="692" unicode="љ" d="M487 41q51 0 80.5 30t29.5 78t-26.5 77.5t-81.5 29.5q-41 0 -66 -5v-187q26 -23 64 -23zM348 64v391h-86q-36 0 -49 -22q-3 -239 -46.5 -342t-111.5 -103q-41 0 -62 23v7q0 37 7 61h28q14 -14 37 -14q20 0 33.5 13.5t24.5 54.5q33 125 33 303q-37 30 -72 30v34h415v-34 q-15 0 -36 -9.5t-40 -20.5v-145q66 2 98 2q24 0 48.5 -5.5t51.5 -18.5t44 -41.5t17 -67.5q0 -67 -42.5 -113.5t-122.5 -46.5h-239v34q14 0 35.5 8.5t34.5 21.5z"/>
<glyph glyph-name="afii10107" horiz-adv-x="712" unicode="њ" d="M514 41q51 0 77 29t26 79q0 107 -98 107q-35 0 -60 -5v-195q33 -15 55 -15zM319 0v34q38 5 65 30v180h-215v-180q27 -25 65 -30v-34h-210v34q33 0 70 30v372q-37 30 -70 30v34h210v-34q-38 -5 -65 -30v-142h215v142q-27 25 -65 30v34h216v-34q-39 0 -76 -30v-145 q62 2 93 2q23 0 46.5 -6t48 -19.5t40 -41.5t15.5 -66q0 -67 -37.5 -113.5t-123.5 -46.5h-222z"/>
<glyph glyph-name="afii10108" horiz-adv-x="582" unicode="ћ" d="M352 0v34q42 6 64 30v119q0 74 -29 109t-105 35q-47 0 -98 -25v-238q35 -30 64 -30v-34h-209v34q33 0 70 30v386h-85v50h85v164q-23 22 -71 22v31l138 33l8 -6v-244h259l-9 -50h-250v-119l71 46q13 10 68 10q89 0 128.5 -44.5t39.5 -153.5v-125q35 -30 71 -30v-34h-210z "/>
<glyph glyph-name="afii10109" horiz-adv-x="496" unicode="ќ" d="M211 552l59 153h94l-123 -170zM234 0h-210v34q33 0 70 30v372q-37 30 -70 30v34h210v-34q-38 -5 -65 -30v-154q4 0 11 0.5t10 0.5q14 0 37 -3q43 53 129 164q-26 20 -57 24v32h175v-34l-60 -22l-99 -122q-25 -32 -56 -46q39 -5 56.5 -18.5t35.5 -48.5l56 -106 q20 -37 40 -56t49 -23v-28h-84q-32 0 -47 29q-76 143 -108 197q-18 30 -65 30q-15 0 -23 -1v-187q27 -25 65 -30v-34z"/>
<glyph glyph-name="afii10110" horiz-adv-x="494" unicode="ў" d="M136 743h40v-93q6 -7 27 -14.5t43 -7.5q50 0 70 22v93h35q34 -29 34 -66q0 -12 -3.5 -26t-7.5 -22l-3 -8q-35 -33 -125 -33q-40 0 -73 10.5t-45 22.5q-19 30 -19 56q0 16 6.5 32.5t13.5 24.5zM312 466v34h182v-34q-15 0 -36 -8t-33 -22l-135 -390l-13 -39 q-47 -141 -58 -163q-20 -36 -54 -42q-13 -2 -33 -2h-45v46q51 9 79 31q15 11 25.5 31t22 56.5t13.5 42.5l-192 429q-35 30 -70 30v34h209v-34q-35 -5 -58 -30l130 -303l14 -40l110 343q-21 24 -58 30z"/>
<glyph glyph-name="afii10193" horiz-adv-x="546" unicode="џ" d="M24 466v34h210v-34q-38 -5 -65 -30v-386h208v386q-27 25 -65 30v34h210v-34q-33 0 -70 -30v-372q31 -28 70 -28v-36h-226l11 -140h-68l11 140h-226v34q33 0 70 30v372q-37 30 -70 30z"/>
<glyph glyph-name="afii10050" horiz-adv-x="456" unicode="Ґ" d="M40 664v36h341q27 40 31 119h34v-169h-247v-582q38 -32 83 -32v-36h-242v36q37 0 75 32v565q-37 31 -75 31z"/>
<glyph glyph-name="afii10098" horiz-adv-x="371" unicode="ґ" d="M330 620h36v-170h-197v-386q15 -13 38 -21.5t37 -8.5v-34h-220v34q33 0 70 30v372q-37 30 -70 30v34h276q27 38 30 120z"/>
<glyph glyph-name="endash" horiz-adv-x="520" unicode="–" d="M65 266v60h386v-60h-386z"/>
<glyph glyph-name="quoteleft" horiz-adv-x="192" unicode="‘" d="M151 595q0 -28 -26 -40q-10 -5 -25 -5q-60 0 -60 74q0 42 27 83t71 68l14 -21q-41 -42 -41 -78q0 -13 6 -22q3 -6 13 -15.5t15.5 -20t5.5 -23.5z"/>
<glyph glyph-name="quotesinglbase" horiz-adv-x="179" unicode="‚" d="M20 60q0 28 26 40q10 5 25 5q60 0 60 -74q0 -42 -27 -83t-71 -68l-14 21q41 42 41 78q0 13 -6 22q-3 6 -13 15.5t-15.5 20t-5.5 23.5z"/>
<glyph glyph-name="quotedblleft" horiz-adv-x="334" unicode="“" d="M293 595q0 -28 -26 -40q-10 -5 -25 -5q-60 0 -60 74q0 42 27 83t71 68l14 -21q-41 -42 -41 -78q0 -13 6 -22q3 -6 13 -15.5t15.5 -20t5.5 -23.5zM151 595q0 -28 -26 -40q-10 -5 -25 -5q-60 0 -60 74q0 42 27 83t71 68l14 -21q-41 -42 -41 -78q0 -13 6 -22q3 -6 13 -15.5 t15.5 -20t5.5 -23.5z"/>
<glyph glyph-name="quotedblright" horiz-adv-x="332" unicode="”" d="M181 660q0 28 26 40q10 5 25 5q60 0 60 -74q0 -42 -27 -83t-71 -68l-14 21q41 42 41 78q0 13 -6 22q-3 6 -13 15.5t-15.5 20t-5.5 23.5zM41 660q0 28 26 40q10 5 25 5q60 0 60 -74q0 -42 -27 -83t-71 -68l-14 21q41 42 41 78q0 13 -6 22q-3 6 -13 15.5t-15.5 20 t-5.5 23.5z"/>
<glyph glyph-name="dagger" horiz-adv-x="400" unicode="†" d="M64 434l116 -18l-21 114l20 72h41l20 -72l-21 -114l116 18l60 -29v-21l-60 -24l-116 24q0 -25 11 -53.5t21 -36.5l-36 -494h-30l-37 494q11 8 21.5 36t10.5 54l-116 -24l-60 24v21z"/>
<glyph glyph-name="daggerdbl" horiz-adv-x="403" unicode="‡" d="M335 360l-116 24q0 -25 11 -53.5t21 -36.5l-27 -99l27 -87q-10 -8 -21 -36.5t-11 -53.5l116 24l60 -24v-21l-60 -29l-116 18l21 -114l-20 -72h-41l-20 72l21 114l-116 -18l-60 29v21l60 24l116 -24q0 26 -10.5 54t-21.5 36l27 87l-27 99q11 8 21.5 36t10.5 54l-116 -24 l-60 24v21l60 29l116 -18l-21 114l20 72h41l20 -72l-21 -114l116 18l60 -29v-21z"/>
<glyph glyph-name="perthousand" horiz-adv-x="970" unicode="‰" d="M22 21l454 684l44 -23l-455 -689zM154 476q84 0 84 116q0 57 -24 90t-68 33q-84 0 -84 -113q0 -55 24 -90.5t68 -35.5zM801 55q84 0 84 116q0 57 -24 90t-68 33q-84 0 -84 -113q0 -55 24 -90.5t68 -35.5zM450 55q84 0 84 116q0 57 -24 90t-68 33q-84 0 -84 -113 q0 -55 24 -90.5t68 -35.5zM802 20q-77 0 -120 40.5t-43 112.5q0 73 46 115t109 42q76 0 118.5 -40.5t42.5 -109.5q0 -77 -43 -118.5t-110 -41.5zM451 20q-77 0 -120 40.5t-43 112.5q0 73 46 115t109 42q76 0 118.5 -40.5t42.5 -109.5q0 -77 -43 -118.5t-110 -41.5zM155 441 q-77 0 -120 40.5t-43 112.5q0 73 46 115t109 42q76 0 118.5 -40.5t42.5 -109.5q0 -77 -43 -118.5t-110 -41.5z"/>
<glyph glyph-name="guilsinglleft" horiz-adv-x="260" unicode="‹" d="M5 279l204 206l28 -23l-126 -183l126 -183l-28 -25z"/>
<glyph glyph-name="guilsinglright" horiz-adv-x="293" unicode="›" d="M88 485l204 -206l-204 -208l-28 25l126 183l-126 183z"/>
<glyph glyph-name="fraction" horiz-adv-x="633" unicode="⁄" d="M32 21l454 684l44 -23l-455 -689z"/>
<glyph glyph-name="Euro" horiz-adv-x="555" unicode="€" d="M-24 296h405l-14 -50h-216q19 -91 70 -142.5t131 -51.5q78 0 175 64l17 -32l-71 -57q-47 -39 -161 -39q-103 0 -169.5 67t-85.5 191h-81v50zM-24 405h82q24 123 104 192t193 69q110 0 161 -25l10 -12v-11q0 -28 -7 -73.5t-15 -65.5h-31q-12 88 -25 107q-8 13 -37.5 21.5 t-63.5 8.5q-84 0 -136.5 -53t-65.5 -158h250l-14 -50h-405v50z"/>
<glyph glyph-name="trademark" horiz-adv-x="961" unicode="™" d="M55 554v146h351v-146h-33q0 63 -26 101h-84v-272q11 -10 34 -18.5t34 -8.5v-31h-202v31q12 0 34 8.5t33 18.5v272h-83q-26 -38 -26 -101h-32zM421 325v31q29 0 64 27l10 259q-34 27 -63 27v31h140v-8l112 -257l112 253v12h138v-31q-29 0 -63 -27l14 -259q35 -27 64 -27 v-31h-189v31q26 0 58 26l-5 182l6 71h-6l-130 -296l-6 -19h-15l-5 19l-123 293h-3l3 -69l-8 -182q33 -25 57 -25v-31h-162z"/>
<glyph glyph-name="partialdiff" horiz-adv-x="567" unicode="∂" d="M274 38q144 0 144 200q0 98 -42.5 153.5t-113.5 55.5t-107.5 -54.5t-36.5 -135.5q0 -94 44 -156.5t112 -62.5zM379 457q-29 70 -92 130t-141 99l46 27q128 -75 203.5 -169t101.5 -233q4 -34 4 -52q0 -127 -63 -199t-175 -72q-104 0 -166 69t-62 183q0 112 69 184.5 t161 72.5q69 0 114 -40z"/>
<glyph glyph-name="product" horiz-adv-x="717" unicode="∏" d="M40 -140v36q37 0 75 32v705q-37 31 -75 31v36h637v-36q-38 0 -75 -31v-704q38 -32 75 -32v-37h-234v37q37 0 75 32v721h-319v-722q38 -32 75 -32v-36h-234z"/>
<glyph glyph-name="summation" horiz-adv-x="552" unicode="∑" d="M231 272l-191 332l8 16h335l96 12l-21 -167h-36l-4 24t-5.5 29.5t-8 26t-13.5 23.5h-229l154 -258v-8l-190 -302h290q9 12 16.5 26.5t10.5 23t9.5 28t8.5 24.5h39l-21 -177h-460v15z"/>
<glyph glyph-name="minus" horiz-adv-x="464" unicode="−" d="M25 282v59h396v-59h-396z"/>
<glyph glyph-name="radical" horiz-adv-x="585" unicode="√" d="M194 327q4 2 13 -4t11 -12q22 -44 126 -308h9q75 383 146 773q6 8 24 17t25 9q9 0 9 -6q-168 -819 -182 -906q-2 -10 -31 -54h-12q-34 87 -94 220t-85 174q-1 9 -16 9q-29 -8 -86 -32q-6 6 -6 28q0 7 3 9q107 55 146 83z"/>
<glyph glyph-name="infinity" horiz-adv-x="751" unicode="∞" d="M172 379q-36 0 -66.5 -32t-30.5 -73q0 -53 28.5 -77.5t76.5 -24.5q92 0 162 81q-30 40 -50 63t-52.5 43t-67.5 20zM574 172q40 0 71 25.5t31 77.5q0 41 -34 72.5t-74 31.5q-81 0 -168 -84q43 -62 84 -92.5t90 -30.5zM572 450q63 0 106 -49t43 -126q0 -78 -45 -123 t-120 -45q-58 0 -102 25.5t-92 89.5q-37 -54 -78 -85t-99 -31q-70 0 -112.5 45.5t-42.5 122.5q0 75 47.5 124.5t107.5 50.5h2q97 0 193 -121q10 11 34 38.5t34 36t30.5 23.5t42.5 19.5t51 4.5z"/>
<glyph glyph-name="approxequal" horiz-adv-x="592" unicode="≈" d="M33 150l-15 25q48 37 88 57t84 20q48 0 125 -35t113 -35q61 0 132 40l15 -19q-69 -84 -162 -84q-49 0 -123 36.5t-113 36.5q-69 0 -144 -42zM33 290l-15 25q48 37 88 57t84 20q48 0 125 -35t113 -35q61 0 132 40l15 -19q-69 -84 -162 -84q-49 0 -123 36.5t-113 36.5 q-69 0 -144 -42z"/>
<glyph glyph-name="notequal" horiz-adv-x="445" unicode="≠" d="M25 288v57h211l83 207h62l-83 -207h123v-57h-146l-30 -75h176v-57h-198l-93 -233h-61l92 233h-136v57h159l30 75h-189z"/>
<glyph glyph-name="lessequal" horiz-adv-x="352" unicode="≤" d="M4 204l248 -174l-33 -49l-242 178zM275 465l42 -52l-226 -148l226 -142l-42 -58l-265 188v23z"/>
<glyph glyph-name="greaterequal" horiz-adv-x="361" unicode="≥" d="M338 204l27 -45l-242 -178l-33 49zM23 413l42 52l265 -189v-23l-265 -188l-42 58l226 142z"/>
<glyph glyph-name="lozenge" horiz-adv-x="664" unicode="◊" d="M174 318l163 -244l153 227l-162 234zM332 -23l-232 332l232 331l232 -331z"/>
<glyph glyph-name="f_f" horiz-adv-x="592" unicode="ﬀ" d="M350 689q-17 20 -72 20t-82 -31.5t-27 -118.5v-59h191v79v10q0 81 -10 100zM645 721l7 -10q-3 -49 -15 -91h-30q-7 61 -20 72q-13 17 -51 17q-49 0 -75 -32t-26 -118v-59h153l-10 -50h-143v-386q15 -12 40.5 -21t40.5 -9v-34h-226v34q33 0 70 30v386h-191v-386 q15 -12 40.5 -21t40.5 -9v-34h-226v34q33 0 70 30v386h-67v39q48 10 67 32v58q0 92 52 131.5t130 39.5q93 0 131 -29l6 -10q46 39 125 39q69 0 107 -29z"/>
<glyph glyph-name="f_f_i" horiz-adv-x="793" unicode="ﬃ" d="M169 500h191v79v10q0 81 -10 100q-17 20 -72 20t-82 -31.5t-27 -118.5v-59zM691 721l7 -10q-4 -58 -12 -91h-52q-7 63 -17 72q-13 17 -72 17q-57 0 -83.5 -31.5t-26.5 -118.5v-59h259l8 -6v-430q35 -30 71 -30v-34h-216v34q33 0 70 30v364l-71 22h-121v-386 q15 -12 40.5 -21t40.5 -9v-34h-226v34q33 0 70 30v386h-191v-386q15 -12 40.5 -21t40.5 -9v-34h-226v34q33 0 70 30v386h-67v39q48 10 67 32v58q0 92 52 131.5t130 39.5q93 0 131 -29l7 -10q49 39 131 39q108 0 146 -29z"/>
<glyph glyph-name="f_f_l" horiz-adv-x="803" unicode="ﬄ" d="M169 500h191v79q0 92 -10 110q-17 20 -72 20t-82 -31.5t-27 -118.5v-59zM694 721l7 -10v-609q0 -39 26 -51t86 -12v-32l-107 -19q-80 0 -80 91v512q0 12 1 31t1 26q0 32 -16.5 46.5t-66.5 14.5q-57 0 -83.5 -31.5t-26.5 -118.5v-59h133l-10 -50h-123v-386 q15 -12 40.5 -21t40.5 -9v-34h-226v34q33 0 70 30v386h-191v-386q15 -12 40.5 -21t40.5 -9v-34h-226v34q33 0 70 30v386h-67v39q48 10 67 32v58q0 92 52 131.5t130 39.5q93 0 131 -29l7 -10q49 39 131 39q111 0 149 -29z"/>
<glyph glyph-name="s_t" horiz-adv-x="701" unicode="ﬆ" d="M691 500l-10 -50h-153v-305q0 -46 17 -66.5t53 -20.5q31 0 81 14l9 -32l-119 -52q-57 0 -86.5 22.5t-29.5 78.5v361h-51v31q58 28 58 104q0 41 -23.5 68t-65.5 27q-40 0 -64 -26.5t-24 -64.5q0 -65 55 -117l7 -9q-1 -18 -5 -40t-8 -35l-3 -12h-29q-8 55 -21 66 q-23 20 -74 20q-37 0 -62.5 -14.5t-25.5 -43.5q0 -26 24 -48t89 -62q82 -50 107.5 -82t25.5 -82q0 -57 -52 -99.5t-125 -42.5q-48 0 -83 12t-47 24l-11 12v115h31l20 -71q42 -42 98 -42q39 0 67 20t28 56q0 11 -2 20t-8.5 18t-10 14.5t-17 15t-19 13t-25 15.5t-26.5 16 q-68 42 -99.5 78t-31.5 81q0 59 45.5 93t118.5 34q20 0 39 -3q-20 34 -20 80q0 60 42 97.5t104 37.5q71 0 110 -34.5t39 -100.5v-89h163z"/>
</font>
</defs>
</svg>
